<svg width="97" height="66" viewBox="0 0 97 66" fill="none" xmlns="http://www.w3.org/2000/svg">
<rect x="0.5" y="0.5" width="96" height="65" rx="16.5" stroke="white"/>
<path d="M48.8707 24.1091L48.9597 24.0509C48.7818 23.7308 48.515 23.4398 48.2481 23.2943L33.9285 15.2037C33.6914 15.0582 33.3652 15 33.0095 15C32.6537 15 32.3276 15.0873 32.0904 15.2037L17.8598 23.3234C17.3558 23.6144 17 24.342 17 24.8949V41.1051C17 41.4252 17.0593 41.7745 17.2668 42.0946L17.2075 42.1237C17.3558 42.3565 17.5633 42.5602 17.7708 42.6766L32.0608 50.7963C32.2979 50.9418 32.6241 51 32.9798 51C33.3356 51 33.6617 50.9127 33.8989 50.7963L48.1295 42.6766C48.6335 42.3856 48.9893 41.658 48.9893 41.1051V24.8658C49.019 24.633 48.9893 24.3711 48.8707 24.1091ZM33.0095 40.1156C35.7074 40.1156 38.0791 38.6605 39.3243 36.5069L43.1488 38.7187C41.1328 42.1528 37.338 44.481 33.0095 44.481C26.5464 44.481 21.2988 39.3298 21.2988 32.9854C21.2988 26.6411 26.5464 21.4899 33.0095 21.4899C37.3676 21.4899 41.1625 23.8472 43.1785 27.3104L39.3243 29.4931C38.0791 27.3104 35.7074 25.8553 33.0095 25.8553C29.0071 25.8553 25.7459 29.0566 25.7459 32.9854C25.7459 36.9143 29.0071 40.1156 33.0095 40.1156Z" fill="white"/>
<path d="M73.2344 34.9785H75.1094C75.0117 35.877 74.7546 36.681 74.3379 37.3906C73.9212 38.1003 73.332 38.6634 72.5703 39.0801C71.8086 39.4902 70.8581 39.6953 69.7188 39.6953C68.8854 39.6953 68.127 39.5391 67.4434 39.2266C66.7663 38.9141 66.1836 38.4714 65.6953 37.8984C65.207 37.319 64.8294 36.6257 64.5625 35.8184C64.3021 35.0046 64.1719 34.0996 64.1719 33.1035V31.6875C64.1719 30.6914 64.3021 29.7897 64.5625 28.9824C64.8294 28.1686 65.2103 27.472 65.7051 26.8926C66.2064 26.3132 66.8086 25.8672 67.5117 25.5547C68.2148 25.2422 69.0059 25.0859 69.8848 25.0859C70.959 25.0859 71.8672 25.2878 72.6094 25.6914C73.3516 26.0951 73.9277 26.6549 74.3379 27.3711C74.7546 28.0807 75.0117 28.9043 75.1094 29.8418H73.2344C73.1432 29.1777 72.974 28.6081 72.7266 28.1328C72.4792 27.651 72.1276 27.2799 71.6719 27.0195C71.2161 26.7591 70.6204 26.6289 69.8848 26.6289C69.2533 26.6289 68.6966 26.7493 68.2148 26.9902C67.7396 27.2311 67.3392 27.5729 67.0137 28.0156C66.6947 28.4583 66.4538 28.9889 66.291 29.6074C66.1283 30.2259 66.0469 30.9128 66.0469 31.668V33.1035C66.0469 33.8001 66.1185 34.4544 66.2617 35.0664C66.4115 35.6784 66.6361 36.2155 66.9355 36.6777C67.235 37.14 67.6159 37.5046 68.0781 37.7715C68.5404 38.0319 69.0872 38.1621 69.7188 38.1621C70.5195 38.1621 71.1576 38.0352 71.6328 37.7812C72.1081 37.5273 72.4661 37.1628 72.707 36.6875C72.9544 36.2122 73.1302 35.6426 73.2344 34.9785Z" fill="white"/>
</svg>
