<svg width="32" height="36" viewBox="0 0 32 36" fill="none" xmlns="http://www.w3.org/2000/svg">
<path d="M31.8707 9.10913L31.9597 9.05093C31.7818 8.7308 31.515 8.43977 31.2481 8.29426L16.9285 0.203719C16.6914 0.0582053 16.3652 0 16.0095 0C15.6537 0 15.3276 0.087308 15.0904 0.203719L0.859768 8.32336C0.355766 8.61439 0 9.34196 0 9.89491V26.1051C0 26.4252 0.0592943 26.7745 0.266825 27.0946L0.20753 27.1237C0.355766 27.3565 0.563297 27.5602 0.770827 27.6766L15.0608 35.7963C15.2979 35.9418 15.6241 36 15.9798 36C16.3356 36 16.6617 35.9127 16.8989 35.7963L31.1295 27.6766C31.6335 27.3856 31.9893 26.658 31.9893 26.1051V9.8658C32.019 9.63298 31.9893 9.37106 31.8707 9.10913ZM16.0095 25.1156C18.7074 25.1156 21.0791 23.6605 22.3243 21.5069L26.1488 23.7187C24.1328 27.1528 20.338 29.481 16.0095 29.481C9.54639 29.481 4.29884 24.3298 4.29884 17.9854C4.29884 11.6411 9.54639 6.48989 16.0095 6.48989C20.3676 6.48989 24.1625 8.84721 26.1785 12.3104L22.3243 14.4931C21.0791 12.3104 18.7074 10.8553 16.0095 10.8553C12.0071 10.8553 8.74592 14.0566 8.74592 17.9854C8.74592 21.9143 12.0071 25.1156 16.0095 25.1156Z" fill="white"/>
</svg>
