<svg width="148" height="66" viewBox="0 0 148 66" fill="none" xmlns="http://www.w3.org/2000/svg">
<rect x="0.5" y="0.5" width="147" height="65" rx="16.5" stroke="white"/>
<path d="M23 10L26.6404 51.4023L42.9751 56L59.356 51.3951L63 10H23ZM55.4367 19.4692L54.2055 33.4621L53.3527 43.1168L53.278 43.9744L43.0071 46.8623L32.7504 43.9744L32.0486 36.0005H37.0748L37.4319 40.0505L43.0142 41.5765L43.0284 41.5729H43.032L48.6001 40.0487L49.1846 33.4639H37.4959L37.3964 32.3235L37.1672 29.749L37.0481 28.387H49.6288L50.0871 23.1876H30.924L30.8245 22.0454L30.5953 19.471L30.4762 18.109H55.5593L55.4385 19.471L55.4367 19.4692Z" fill="white"/>
<path d="M88.2344 34.9785H90.1094C90.0117 35.877 89.7546 36.681 89.3379 37.3906C88.9212 38.1003 88.332 38.6634 87.5703 39.0801C86.8086 39.4902 85.8581 39.6953 84.7188 39.6953C83.8854 39.6953 83.127 39.5391 82.4434 39.2266C81.7663 38.9141 81.1836 38.4714 80.6953 37.8984C80.207 37.319 79.8294 36.6257 79.5625 35.8184C79.3021 35.0046 79.1719 34.0996 79.1719 33.1035V31.6875C79.1719 30.6914 79.3021 29.7897 79.5625 28.9824C79.8294 28.1686 80.2103 27.472 80.7051 26.8926C81.2064 26.3132 81.8086 25.8672 82.5117 25.5547C83.2148 25.2422 84.0059 25.0859 84.8848 25.0859C85.959 25.0859 86.8672 25.2878 87.6094 25.6914C88.3516 26.0951 88.9277 26.6549 89.3379 27.3711C89.7546 28.0807 90.0117 28.9043 90.1094 29.8418H88.2344C88.1432 29.1777 87.974 28.6081 87.7266 28.1328C87.4792 27.651 87.1276 27.2799 86.6719 27.0195C86.2161 26.7591 85.6204 26.6289 84.8848 26.6289C84.2533 26.6289 83.6966 26.7493 83.2148 26.9902C82.7396 27.2311 82.3392 27.5729 82.0137 28.0156C81.6947 28.4583 81.4538 28.9889 81.291 29.6074C81.1283 30.2259 81.0469 30.9128 81.0469 31.668V33.1035C81.0469 33.8001 81.1185 34.4544 81.2617 35.0664C81.4115 35.6784 81.6361 36.2155 81.9355 36.6777C82.235 37.14 82.6159 37.5046 83.0781 37.7715C83.5404 38.0319 84.0872 38.1621 84.7188 38.1621C85.5195 38.1621 86.1576 38.0352 86.6328 37.7812C87.1081 37.5273 87.4661 37.1628 87.707 36.6875C87.9544 36.2122 88.1302 35.6426 88.2344 34.9785ZM100.256 35.9062C100.256 35.5742 100.204 35.2812 100.1 35.0273C100.002 34.7669 99.8262 34.5326 99.5723 34.3242C99.3249 34.1159 98.9798 33.9173 98.5371 33.7285C98.1009 33.5397 97.5475 33.3477 96.877 33.1523C96.1738 32.944 95.5391 32.7129 94.9727 32.459C94.4062 32.1986 93.9212 31.9023 93.5176 31.5703C93.1139 31.2383 92.8047 30.8574 92.5898 30.4277C92.375 29.998 92.2676 29.5065 92.2676 28.9531C92.2676 28.3997 92.3815 27.8887 92.6094 27.4199C92.8372 26.9512 93.1628 26.5443 93.5859 26.1992C94.0156 25.8477 94.5267 25.5742 95.1191 25.3789C95.7116 25.1836 96.3724 25.0859 97.1016 25.0859C98.1693 25.0859 99.0742 25.291 99.8164 25.7012C100.565 26.1048 101.135 26.6354 101.525 27.293C101.916 27.944 102.111 28.6406 102.111 29.3828H100.236C100.236 28.849 100.122 28.377 99.8945 27.9668C99.6667 27.5501 99.3216 27.2246 98.8594 26.9902C98.3971 26.7493 97.8112 26.6289 97.1016 26.6289C96.431 26.6289 95.8776 26.7298 95.4414 26.9316C95.0052 27.1335 94.6797 27.4069 94.4648 27.752C94.2565 28.097 94.1523 28.4909 94.1523 28.9336C94.1523 29.2331 94.2142 29.5065 94.3379 29.7539C94.4681 29.9948 94.6667 30.2194 94.9336 30.4277C95.207 30.6361 95.5521 30.8281 95.9688 31.0039C96.3919 31.1797 96.8965 31.349 97.4824 31.5117C98.2897 31.7396 98.9863 31.9935 99.5723 32.2734C100.158 32.5534 100.64 32.8691 101.018 33.2207C101.402 33.5658 101.685 33.9596 101.867 34.4023C102.056 34.8385 102.15 35.3333 102.15 35.8867C102.15 36.4661 102.033 36.9902 101.799 37.459C101.564 37.9277 101.229 38.3281 100.793 38.6602C100.357 38.9922 99.8327 39.2493 99.2207 39.4316C98.6152 39.6074 97.9382 39.6953 97.1895 39.6953C96.5319 39.6953 95.8841 39.6042 95.2461 39.4219C94.6146 39.2396 94.0384 38.9661 93.5176 38.6016C93.0033 38.237 92.5898 37.7878 92.2773 37.2539C91.9714 36.7135 91.8184 36.0885 91.8184 35.3789H93.6934C93.6934 35.8672 93.7878 36.2871 93.9766 36.6387C94.1654 36.9837 94.4225 37.2702 94.748 37.498C95.0801 37.7259 95.4544 37.8952 95.8711 38.0059C96.2943 38.11 96.7337 38.1621 97.1895 38.1621C97.847 38.1621 98.4036 38.071 98.8594 37.8887C99.3151 37.7064 99.6602 37.446 99.8945 37.1074C100.135 36.7689 100.256 36.3685 100.256 35.9062ZM112.131 35.9062C112.131 35.5742 112.079 35.2812 111.975 35.0273C111.877 34.7669 111.701 34.5326 111.447 34.3242C111.2 34.1159 110.855 33.9173 110.412 33.7285C109.976 33.5397 109.423 33.3477 108.752 33.1523C108.049 32.944 107.414 32.7129 106.848 32.459C106.281 32.1986 105.796 31.9023 105.393 31.5703C104.989 31.2383 104.68 30.8574 104.465 30.4277C104.25 29.998 104.143 29.5065 104.143 28.9531C104.143 28.3997 104.257 27.8887 104.484 27.4199C104.712 26.9512 105.038 26.5443 105.461 26.1992C105.891 25.8477 106.402 25.5742 106.994 25.3789C107.587 25.1836 108.247 25.0859 108.977 25.0859C110.044 25.0859 110.949 25.291 111.691 25.7012C112.44 26.1048 113.01 26.6354 113.4 27.293C113.791 27.944 113.986 28.6406 113.986 29.3828H112.111C112.111 28.849 111.997 28.377 111.77 27.9668C111.542 27.5501 111.197 27.2246 110.734 26.9902C110.272 26.7493 109.686 26.6289 108.977 26.6289C108.306 26.6289 107.753 26.7298 107.316 26.9316C106.88 27.1335 106.555 27.4069 106.34 27.752C106.132 28.097 106.027 28.4909 106.027 28.9336C106.027 29.2331 106.089 29.5065 106.213 29.7539C106.343 29.9948 106.542 30.2194 106.809 30.4277C107.082 30.6361 107.427 30.8281 107.844 31.0039C108.267 31.1797 108.771 31.349 109.357 31.5117C110.165 31.7396 110.861 31.9935 111.447 32.2734C112.033 32.5534 112.515 32.8691 112.893 33.2207C113.277 33.5658 113.56 33.9596 113.742 34.4023C113.931 34.8385 114.025 35.3333 114.025 35.8867C114.025 36.4661 113.908 36.9902 113.674 37.459C113.439 37.9277 113.104 38.3281 112.668 38.6602C112.232 38.9922 111.708 39.2493 111.096 39.4316C110.49 39.6074 109.813 39.6953 109.064 39.6953C108.407 39.6953 107.759 39.6042 107.121 39.4219C106.49 39.2396 105.913 38.9661 105.393 38.6016C104.878 38.237 104.465 37.7878 104.152 37.2539C103.846 36.7135 103.693 36.0885 103.693 35.3789H105.568C105.568 35.8672 105.663 36.2871 105.852 36.6387C106.04 36.9837 106.298 37.2702 106.623 37.498C106.955 37.7259 107.329 37.8952 107.746 38.0059C108.169 38.11 108.609 38.1621 109.064 38.1621C109.722 38.1621 110.279 38.071 110.734 37.8887C111.19 37.7064 111.535 37.446 111.77 37.1074C112.01 36.7689 112.131 36.3685 112.131 35.9062Z" fill="white"/>
</svg>
