<svg width="16" height="17" viewBox="0 0 16 17" fill="none" xmlns="http://www.w3.org/2000/svg">
<path d="M15.2 10.1C14.9878 10.1 14.7843 10.1843 14.6343 10.3343C14.4843 10.4843 14.4 10.6878 14.4 10.9V14.1C14.4 14.3122 14.3157 14.5157 14.1657 14.6657C14.0157 14.8157 13.8122 14.9 13.6 14.9H2.4C2.18783 14.9 1.98434 14.8157 1.83431 14.6657C1.68429 14.5157 1.6 14.3122 1.6 14.1V10.9C1.6 10.6878 1.51571 10.4843 1.36569 10.3343C1.21566 10.1843 1.01217 10.1 0.8 10.1C0.587827 10.1 0.384344 10.1843 0.234315 10.3343C0.0842854 10.4843 0 10.6878 0 10.9V14.1C0 14.7365 0.252856 15.347 0.702944 15.7971C1.15303 16.2471 1.76348 16.5 2.4 16.5H13.6C14.2365 16.5 14.847 16.2471 15.2971 15.7971C15.7471 15.347 16 14.7365 16 14.1V10.9C16 10.6878 15.9157 10.4843 15.7657 10.3343C15.6157 10.1843 15.4122 10.1 15.2 10.1ZM7.432 11.468C7.50808 11.5408 7.5978 11.5979 7.696 11.636C7.79176 11.6783 7.8953 11.7002 8 11.7002C8.1047 11.7002 8.20824 11.6783 8.304 11.636C8.4022 11.5979 8.49192 11.5408 8.568 11.468L11.768 8.268C11.9186 8.11736 12.0033 7.91304 12.0033 7.7C12.0033 7.48696 11.9186 7.28264 11.768 7.132C11.6174 6.98136 11.413 6.89673 11.2 6.89673C10.987 6.89673 10.7826 6.98136 10.632 7.132L8.8 8.972V1.3C8.8 1.08783 8.71571 0.884344 8.56569 0.734315C8.41566 0.584285 8.21217 0.5 8 0.5C7.78783 0.5 7.58434 0.584285 7.43431 0.734315C7.28429 0.884344 7.2 1.08783 7.2 1.3V8.972L5.368 7.132C5.29341 7.05741 5.20486 6.99824 5.1074 6.95787C5.00994 6.9175 4.90549 6.89673 4.8 6.89673C4.69451 6.89673 4.59006 6.9175 4.4926 6.95787C4.39514 6.99824 4.30659 7.05741 4.232 7.132C4.15741 7.20659 4.09824 7.29514 4.05787 7.3926C4.0175 7.49006 3.99673 7.59451 3.99673 7.7C3.99673 7.80549 4.0175 7.90994 4.05787 8.0074C4.09824 8.10486 4.15741 8.19341 4.232 8.268L7.432 11.468Z" fill="white"/>
</svg>
