<svg width="132" height="66" viewBox="0 0 132 66" fill="none" xmlns="http://www.w3.org/2000/svg">
<rect x="0.5" y="0.5" width="131" height="65" rx="16.5" stroke="white"/>
<path fill-rule="evenodd" clip-rule="evenodd" d="M20.6844 27.0489C18.7673 25.7827 17.5 23.5903 17.5 21.0978C17.5 17.1778 20.6348 14 24.5018 14H36.4982C40.3652 14 43.5 17.1778 43.5 21.0978C43.5 23.5903 42.2327 25.7827 40.3156 27.0489C42.2327 28.3152 43.5 30.5076 43.5 33.0001C43.5 36.9201 40.3652 40.0979 36.4982 40.0979H36.3705C34.5426 40.0979 32.8782 39.3878 31.6313 38.2249V44.8374C31.6313 48.8013 28.4278 52 24.5336 52C20.6745 52 17.5 48.8302 17.5 44.9022C17.5 42.4098 18.7673 40.2174 20.6842 38.9511C18.7673 37.6848 17.5 35.4925 17.5 33.0001C17.5 30.5076 18.7673 28.3152 20.6844 27.0489ZM31.6313 33.0001C31.6313 35.6534 33.7532 37.8043 36.3705 37.8043H36.4982C39.1156 37.8043 41.2375 35.6534 41.2375 33.0001C41.2375 30.3467 39.1156 28.1958 36.4982 28.1958H36.3705C33.7532 28.1958 31.6313 30.3467 31.6313 33.0001ZM29.3687 28.1958H24.5018C21.8844 28.1958 19.7625 30.3467 19.7625 33.0001C19.7625 35.648 21.8758 37.7956 24.4859 37.8043H24.4933H29.3687V28.1958ZM24.5018 40.0979C24.4965 40.0979 24.4912 40.0979 24.4859 40.0979C21.8758 40.1066 19.7625 42.2542 19.7625 44.9022C19.7625 47.5475 21.9082 49.7064 24.5336 49.7064C27.1942 49.7064 29.3687 47.5185 29.3687 44.8374V40.0979H24.5018ZM29.3687 25.9021H24.5018C21.8844 25.9021 19.7625 23.7512 19.7625 21.0978C19.7625 18.4445 21.8844 16.2936 24.5018 16.2936H29.3687V25.9021ZM36.4982 25.9021H31.6313V16.2936H36.4982C39.1156 16.2936 41.2375 18.4445 41.2375 21.0978C41.2375 23.7512 39.1156 25.9021 36.4982 25.9021Z" fill="white"/>
<path d="M62.0352 25.2812V39.5H60.1504V25.2812H62.0352ZM67.9922 31.6777V33.2207H61.625V31.6777H67.9922ZM68.959 25.2812V26.8242H61.625V25.2812H68.959ZM72.8945 28.9336V39.5H71.0781V28.9336H72.8945ZM70.9414 26.1309C70.9414 25.8379 71.0293 25.5905 71.2051 25.3887C71.3874 25.1868 71.6543 25.0859 72.0059 25.0859C72.3509 25.0859 72.6146 25.1868 72.7969 25.3887C72.9857 25.5905 73.0801 25.8379 73.0801 26.1309C73.0801 26.4108 72.9857 26.6517 72.7969 26.8535C72.6146 27.0488 72.3509 27.1465 72.0059 27.1465C71.6543 27.1465 71.3874 27.0488 71.2051 26.8535C71.0293 26.6517 70.9414 26.4108 70.9414 26.1309ZM82.6406 28.9336H84.2812V39.2754C84.2812 40.2064 84.0924 41.0007 83.7148 41.6582C83.3372 42.3158 82.8099 42.8138 82.1328 43.1523C81.4622 43.4974 80.6875 43.6699 79.8086 43.6699C79.444 43.6699 79.0143 43.6113 78.5195 43.4941C78.0312 43.3835 77.5495 43.1914 77.0742 42.918C76.6055 42.651 76.2116 42.2897 75.8926 41.834L76.8398 40.7598C77.2826 41.2936 77.7448 41.6647 78.2266 41.873C78.7148 42.0814 79.1966 42.1855 79.6719 42.1855C80.2448 42.1855 80.7396 42.0781 81.1562 41.8633C81.5729 41.6484 81.8952 41.3294 82.123 40.9062C82.3574 40.4896 82.4746 39.9753 82.4746 39.3633V31.2578L82.6406 28.9336ZM75.3652 34.334V34.1289C75.3652 33.3216 75.4596 32.5892 75.6484 31.9316C75.8438 31.2676 76.1204 30.6979 76.4785 30.2227C76.8431 29.7474 77.2826 29.3828 77.7969 29.1289C78.3112 28.8685 78.8906 28.7383 79.5352 28.7383C80.1992 28.7383 80.7786 28.8555 81.2734 29.0898C81.7747 29.3177 82.1979 29.653 82.543 30.0957C82.8945 30.5319 83.1712 31.0592 83.373 31.6777C83.5749 32.2962 83.7148 32.9961 83.793 33.7773V34.6758C83.7214 35.4505 83.5814 36.1471 83.373 36.7656C83.1712 37.3841 82.8945 37.9115 82.543 38.3477C82.1979 38.7839 81.7747 39.1191 81.2734 39.3535C80.7721 39.5814 80.1862 39.6953 79.5156 39.6953C78.8841 39.6953 78.3112 39.5618 77.7969 39.2949C77.2891 39.028 76.8529 38.6536 76.4883 38.1719C76.1237 37.6901 75.8438 37.1237 75.6484 36.4727C75.4596 35.8151 75.3652 35.1022 75.3652 34.334ZM77.1719 34.1289V34.334C77.1719 34.8613 77.224 35.3561 77.3281 35.8184C77.4388 36.2806 77.6048 36.6875 77.8262 37.0391C78.054 37.3906 78.3438 37.6673 78.6953 37.8691C79.0469 38.0645 79.4668 38.1621 79.9551 38.1621C80.554 38.1621 81.0488 38.0352 81.4395 37.7812C81.8301 37.5273 82.1393 37.1921 82.3672 36.7754C82.6016 36.3587 82.7839 35.9062 82.9141 35.418V33.0645C82.8424 32.7064 82.7318 32.3613 82.582 32.0293C82.4388 31.6908 82.25 31.3913 82.0156 31.1309C81.7878 30.8639 81.5046 30.6523 81.166 30.4961C80.8275 30.3398 80.4303 30.2617 79.9746 30.2617C79.4798 30.2617 79.0534 30.3659 78.6953 30.5742C78.3438 30.776 78.054 31.056 77.8262 31.4141C77.6048 31.7656 77.4388 32.1758 77.3281 32.6445C77.224 33.1068 77.1719 33.6016 77.1719 34.1289ZM88.8223 31.0332V39.5H87.0059V28.9336H88.7246L88.8223 31.0332ZM88.4512 33.8164L87.6113 33.7871C87.6178 33.0645 87.7122 32.3971 87.8945 31.7852C88.0768 31.1667 88.347 30.6296 88.7051 30.1738C89.0632 29.7181 89.5091 29.3665 90.043 29.1191C90.5768 28.8652 91.1953 28.7383 91.8984 28.7383C92.3932 28.7383 92.849 28.8099 93.2656 28.9531C93.6823 29.0898 94.0436 29.3079 94.3496 29.6074C94.6556 29.9069 94.8932 30.291 95.0625 30.7598C95.2318 31.2285 95.3164 31.7949 95.3164 32.459V39.5H93.5098V32.5469C93.5098 31.9935 93.4154 31.5508 93.2266 31.2188C93.0443 30.8867 92.7839 30.6458 92.4453 30.4961C92.1068 30.3398 91.7096 30.2617 91.2539 30.2617C90.7201 30.2617 90.2741 30.3561 89.916 30.5449C89.5579 30.7337 89.2715 30.9941 89.0566 31.3262C88.8418 31.6582 88.6855 32.0391 88.5879 32.4688C88.4967 32.8919 88.4512 33.3411 88.4512 33.8164ZM95.2969 32.8203L94.0859 33.1914C94.0924 32.612 94.1868 32.0553 94.3691 31.5215C94.5579 30.9876 94.8281 30.5124 95.1797 30.0957C95.5378 29.679 95.9772 29.3503 96.498 29.1094C97.0189 28.862 97.6146 28.7383 98.2852 28.7383C98.8516 28.7383 99.3529 28.8132 99.7891 28.9629C100.232 29.1126 100.603 29.3438 100.902 29.6562C101.208 29.9622 101.439 30.3561 101.596 30.8379C101.752 31.3197 101.83 31.8926 101.83 32.5566V39.5H100.014V32.5371C100.014 31.9447 99.9193 31.4857 99.7305 31.1602C99.5482 30.8281 99.2878 30.597 98.9492 30.4668C98.6172 30.3301 98.2201 30.2617 97.7578 30.2617C97.3607 30.2617 97.0091 30.3301 96.7031 30.4668C96.3971 30.6035 96.14 30.7923 95.9316 31.0332C95.7233 31.2676 95.5638 31.5378 95.4531 31.8438C95.349 32.1497 95.2969 32.4753 95.2969 32.8203ZM110.795 37.6934V32.2539C110.795 31.8372 110.71 31.4759 110.541 31.1699C110.378 30.8574 110.131 30.6165 109.799 30.4473C109.467 30.278 109.057 30.1934 108.568 30.1934C108.113 30.1934 107.712 30.2715 107.367 30.4277C107.029 30.584 106.762 30.7891 106.566 31.043C106.378 31.2969 106.283 31.5703 106.283 31.8633H104.477C104.477 31.4857 104.574 31.1113 104.77 30.7402C104.965 30.3691 105.245 30.0339 105.609 29.7344C105.98 29.4284 106.423 29.1875 106.938 29.0117C107.458 28.8294 108.038 28.7383 108.676 28.7383C109.444 28.7383 110.121 28.8685 110.707 29.1289C111.299 29.3893 111.762 29.7832 112.094 30.3105C112.432 30.8314 112.602 31.4857 112.602 32.2734V37.1953C112.602 37.5469 112.631 37.9212 112.689 38.3184C112.755 38.7155 112.849 39.0573 112.973 39.3438V39.5H111.088C110.997 39.2917 110.925 39.015 110.873 38.6699C110.821 38.3184 110.795 37.9928 110.795 37.6934ZM111.107 33.0938L111.127 34.3633H109.301C108.786 34.3633 108.327 34.4056 107.924 34.4902C107.52 34.5684 107.182 34.6888 106.908 34.8516C106.635 35.0143 106.426 35.2194 106.283 35.4668C106.14 35.7077 106.068 35.9909 106.068 36.3164C106.068 36.6484 106.143 36.9512 106.293 37.2246C106.443 37.498 106.667 37.7161 106.967 37.8789C107.273 38.0352 107.647 38.1133 108.09 38.1133C108.643 38.1133 109.132 37.9961 109.555 37.7617C109.978 37.5273 110.313 37.2409 110.561 36.9023C110.814 36.5638 110.951 36.235 110.971 35.916L111.742 36.7852C111.697 37.0586 111.573 37.3613 111.371 37.6934C111.169 38.0254 110.899 38.3444 110.561 38.6504C110.229 38.9499 109.831 39.2005 109.369 39.4023C108.913 39.5977 108.399 39.6953 107.826 39.6953C107.11 39.6953 106.482 39.5553 105.941 39.2754C105.408 38.9954 104.991 38.6211 104.691 38.1523C104.398 37.6771 104.252 37.1465 104.252 36.5605C104.252 35.9941 104.363 35.4961 104.584 35.0664C104.805 34.6302 105.124 34.2689 105.541 33.9824C105.958 33.6895 106.459 33.4681 107.045 33.3184C107.631 33.1686 108.285 33.0938 109.008 33.0938H111.107Z" fill="white"/>
</svg>
