<svg width="120" height="66" viewBox="0 0 120 66" fill="none" xmlns="http://www.w3.org/2000/svg">
<rect x="0.5" y="0.5" width="119" height="65" rx="16.5" stroke="white"/>
<path d="M64.2063 31.1304L45.8686 12.7917C45.3613 12.2848 44.6734 12 43.9562 12C43.2391 12 42.5512 12.2848 42.0439 12.7917L38.2359 16.5998L43.0662 21.4303C43.6357 21.2366 44.2482 21.2067 44.8339 21.3441C45.4196 21.4815 45.955 21.7806 46.379 22.2073C46.803 22.6341 47.0987 23.1714 47.2323 23.758C47.3659 24.3446 47.3322 24.9569 47.1348 25.5252L51.79 30.1807C52.4858 29.9414 53.2427 29.9478 53.9343 30.1989C54.626 30.45 55.2107 30.9306 55.591 31.5605C55.9713 32.1905 56.1242 32.9318 56.0242 33.6608C55.9242 34.3899 55.5774 35.0626 55.0415 35.5669C54.5057 36.0713 53.8132 36.3767 53.0794 36.4322C52.3457 36.4878 51.6151 36.2902 51.0094 35.8724C50.4037 35.4545 49.9595 34.8417 49.7508 34.136C49.5422 33.4304 49.5817 32.6745 49.8627 31.9944L45.5204 27.6518V39.0781C46.181 39.4044 46.7098 39.9472 47.0187 40.6161C47.3276 41.2851 47.3979 42.0397 47.2178 42.7541C47.0377 43.4686 46.6182 44.0997 46.0291 44.5423C45.4401 44.9849 44.7171 45.2122 43.9808 45.1863C43.2445 45.1604 42.5393 44.8828 41.9828 44.3999C41.4264 43.917 41.0522 43.258 40.9228 42.5326C40.7934 41.8073 40.9165 41.0595 41.2716 40.4139C41.6268 39.7683 42.1925 39.264 42.8744 38.985V27.4526C42.4818 27.2912 42.125 27.0539 41.8246 26.7541C41.5241 26.4544 41.2858 26.0982 41.1235 25.706C40.9612 25.3139 40.878 24.8935 40.8787 24.469C40.8794 24.0446 40.9641 23.6245 41.1277 23.2329L36.3664 18.4695L23.7918 31.0429C23.2848 31.5505 23 32.2387 23 32.9562C23 33.6738 23.2848 34.3619 23.7918 34.8696L42.1314 53.2083C42.6387 53.7152 43.3266 54 44.0438 54C44.7609 54 45.4488 53.7152 45.9561 53.2083L64.2082 34.9553C64.7152 34.4476 65 33.7594 65 33.0419C65 32.3244 64.7152 31.6362 64.2082 31.1285L64.2063 31.1304Z" fill="white"/>
<path d="M92.1582 32.4199V37.625C91.9824 37.8854 91.7025 38.1784 91.3184 38.5039C90.9342 38.8229 90.4036 39.1029 89.7266 39.3438C89.056 39.5781 88.1901 39.6953 87.1289 39.6953C86.263 39.6953 85.4655 39.5456 84.7363 39.2461C84.0137 38.9401 83.3854 38.4974 82.8516 37.918C82.3242 37.332 81.9141 36.6224 81.6211 35.7891C81.3346 34.9492 81.1914 33.9987 81.1914 32.9375V31.834C81.1914 30.7728 81.3151 29.8255 81.5625 28.9922C81.8164 28.1589 82.1875 27.4525 82.6758 26.873C83.1641 26.2871 83.763 25.8444 84.4727 25.5449C85.1823 25.2389 85.9961 25.0859 86.9141 25.0859C88.0013 25.0859 88.9095 25.2747 89.6387 25.6523C90.3743 26.0234 90.9473 26.5378 91.3574 27.1953C91.7741 27.8529 92.041 28.6016 92.1582 29.4414H90.2734C90.1888 28.9271 90.0195 28.4583 89.7656 28.0352C89.5182 27.612 89.1634 27.2734 88.7012 27.0195C88.2389 26.7591 87.6432 26.6289 86.9141 26.6289C86.2565 26.6289 85.6868 26.7493 85.2051 26.9902C84.7233 27.2311 84.3262 27.5762 84.0137 28.0254C83.7012 28.4746 83.4668 29.0182 83.3105 29.6562C83.1608 30.2943 83.0859 31.0137 83.0859 31.8145V32.9375C83.0859 33.7578 83.1803 34.4902 83.3691 35.1348C83.5645 35.7793 83.8411 36.3294 84.1992 36.7852C84.5573 37.2344 84.9837 37.5762 85.4785 37.8105C85.9798 38.0449 86.5332 38.1621 87.1387 38.1621C87.8092 38.1621 88.3529 38.1068 88.7695 37.9961C89.1862 37.8789 89.5117 37.7422 89.7461 37.5859C89.9805 37.4232 90.1595 37.2702 90.2832 37.127V33.9434H86.9922V32.4199H92.1582ZM96.9727 28.9336V39.5H95.1562V28.9336H96.9727ZM95.0195 26.1309C95.0195 25.8379 95.1074 25.5905 95.2832 25.3887C95.4655 25.1868 95.7324 25.0859 96.084 25.0859C96.429 25.0859 96.6927 25.1868 96.875 25.3887C97.0638 25.5905 97.1582 25.8379 97.1582 26.1309C97.1582 26.4108 97.0638 26.6517 96.875 26.8535C96.6927 27.0488 96.429 27.1465 96.084 27.1465C95.7324 27.1465 95.4655 27.0488 95.2832 26.8535C95.1074 26.6517 95.0195 26.4108 95.0195 26.1309ZM104.297 28.9336V30.3203H98.584V28.9336H104.297ZM100.518 26.3652H102.324V36.8828C102.324 37.2409 102.38 37.5111 102.49 37.6934C102.601 37.8757 102.744 37.9961 102.92 38.0547C103.096 38.1133 103.285 38.1426 103.486 38.1426C103.636 38.1426 103.792 38.1296 103.955 38.1035C104.124 38.071 104.251 38.0449 104.336 38.0254L104.346 39.5C104.202 39.5456 104.014 39.5879 103.779 39.627C103.551 39.6725 103.275 39.6953 102.949 39.6953C102.507 39.6953 102.1 39.6074 101.729 39.4316C101.357 39.2559 101.061 38.9629 100.84 38.5527C100.625 38.1361 100.518 37.5762 100.518 36.873V26.3652Z" fill="white"/>
</svg>
