<svg width="140" height="66" viewBox="0 0 140 66" fill="none" xmlns="http://www.w3.org/2000/svg">
<rect x="0.5" y="0.5" width="139" height="65" rx="16.5" stroke="white"/>
<path d="M20.0982 49.5742L17 12.1034L54 12.1787L50.724 49.5742L35.6396 53.8966L20.0982 49.5742Z" fill="#DADADA"/>
<path d="M35.6396 50.2778V15.6719L50.8765 15.7221L48.1594 46.6838L35.6396 50.2778Z" fill="white"/>
<path d="M46.6864 24.3172L47.1179 19.7432H23.6787L24.9737 33.7666H41.1502L40.5158 39.7477L35.3352 41.1297L30.0785 39.6219L29.7992 36.0533H25.1515L25.7865 43.3414L35.3349 45.9801L44.9594 43.3414L46.2544 29.1172H29.2657L28.7832 24.3172H46.6864Z" fill="black"/>
<path d="M78.9375 31.3945V32.9277H71.2422V31.3945H78.9375ZM71.5352 25.2812V39.5H69.6504V25.2812H71.5352ZM80.5781 25.2812V39.5H78.7031V25.2812H80.5781ZM88.8887 25.2812V39.5H87.0332V25.2812H88.8887ZM93.459 25.2812V26.8242H82.4727V25.2812H93.459ZM96.1641 25.2812H97.9902L102.648 36.873L107.297 25.2812H109.133L103.352 39.5H101.926L96.1641 25.2812ZM95.5684 25.2812H97.1797L97.4434 33.9531V39.5H95.5684V25.2812ZM108.107 25.2812H109.719V39.5H107.844V33.9531L108.107 25.2812ZM121.652 37.9668V39.5H114.543V37.9668H121.652ZM114.914 25.2812V39.5H113.029V25.2812H114.914Z" fill="white"/>
</svg>
