<svg width="34" height="46" viewBox="0 0 34 46" fill="none" xmlns="http://www.w3.org/2000/svg">
<path d="M10.6667 35.2759C10.6667 35.2759 8.95163 36.2739 11.8889 36.6107C15.4479 37.0172 17.2666 36.9589 21.1875 36.2178C21.1875 36.2178 22.2204 36.8636 23.6602 37.4234C14.8675 41.1903 3.76141 37.205 10.6667 35.2759ZM9.59168 30.3594C9.59168 30.3594 7.66757 31.7838 10.6073 32.0882C14.4092 32.4807 17.4108 32.5127 22.6075 31.5125C22.6075 31.5125 23.3246 32.2411 24.4539 32.639C13.8252 35.7475 1.98697 32.8837 9.59168 30.3594Z" fill="white"/>
<path d="M18.6486 22.0181C20.8163 24.5132 18.0801 26.7565 18.0801 26.7565C18.0801 26.7565 23.5808 23.9174 21.0551 20.3606C18.6953 17.0452 16.8864 15.3985 26.6803 9.71826C26.6803 9.71862 11.3065 13.5571 18.6486 22.0181Z" fill="white"/>
<path d="M30.277 38.913C30.277 38.913 31.5467 39.9599 28.8782 40.7691C23.8045 42.3061 7.75679 42.7695 3.29981 40.8306C1.69842 40.1333 4.7026 39.1666 5.64774 38.9626C6.63319 38.7493 7.19589 38.7881 7.19589 38.7881C5.41389 37.5336 -4.32182 41.2526 2.2514 42.3194C20.1761 45.225 34.9257 41.0108 30.277 38.913ZM11.4924 25.2646C11.4924 25.2646 3.33039 27.2035 8.60228 27.9083C10.8286 28.2062 15.2647 28.1378 19.3997 27.791C22.778 27.5071 26.1683 26.9009 26.1683 26.9009C26.1683 26.9009 24.9781 27.4114 24.1161 27.9993C15.826 30.18 -0.185043 29.1643 4.42485 26.9351C8.322 25.0502 11.4924 25.2646 11.4924 25.2646ZM26.1345 33.4486C34.5609 29.0711 30.6645 24.8642 27.9449 25.4308C27.28 25.5694 26.9817 25.6899 26.9817 25.6899C26.9817 25.6899 27.2293 25.3017 27.7013 25.1347C33.0811 23.2441 37.2179 30.7124 25.9661 33.6706C25.9661 33.6698 26.0952 33.5529 26.1345 33.4486Z" fill="white"/>
<path d="M21.055 0.544983C21.055 0.544983 25.7207 5.21351 16.6286 12.3901C9.33726 18.1488 14.9661 21.4314 16.6261 25.1836C12.3695 21.3436 9.24732 17.9628 11.3416 14.8165C14.417 10.199 22.937 7.95937 21.055 0.544983Z" fill="white"/>
<path d="M12.3206 45.3141C20.4071 45.8311 32.8282 45.0263 33.1222 41.1996C33.1222 41.1996 32.5569 42.6503 26.4385 43.8012C19.5357 45.1008 11.0204 44.9493 5.97156 44.1157C5.97156 44.116 7.00593 44.9723 12.3206 45.3141Z" fill="white"/>
</svg>
