<svg width="182" height="66" viewBox="0 0 182 66" fill="none" xmlns="http://www.w3.org/2000/svg">
<rect x="0.5" y="0.5" width="181" height="65" rx="16.5" stroke="white"/>
<path d="M17 15V51H53V15H17ZM36.0423 45.6757C35.5109 46.7555 34.4966 47.4648 33.3212 47.8072C31.5152 48.222 29.7878 47.9855 28.5027 47.2142C27.6428 46.6866 26.9711 45.8745 26.5152 44.9388L29.257 43.2597C29.2809 43.2698 29.3529 43.4 29.4491 43.5682C29.7987 44.154 30.1003 44.5687 30.693 44.8598C31.2753 45.0586 32.5537 45.1856 33.0474 44.1609C33.3489 43.6396 33.253 41.964 33.253 40.1101C33.2527 37.197 33.2662 34.296 33.2662 31.416H36.6384C36.6384 34.584 36.6557 37.5844 36.6384 40.6758C36.6456 42.5708 36.8101 44.2602 36.0423 45.6757ZM50.0316 44.723C48.8594 48.7326 42.3241 48.8627 39.7125 46.2137C39.1607 45.5902 38.8148 45.2645 38.4857 44.5448C39.8735 43.7464 39.8735 43.7464 41.224 42.9651C41.9575 44.0926 42.6357 44.7127 43.856 44.9664C45.5114 45.1686 47.1769 44.5998 46.8034 42.8415C46.4195 41.4056 43.4136 41.0562 41.368 39.5206C39.2912 38.1258 38.8045 34.7366 40.5112 32.8001C41.08 32.0839 42.05 31.5493 43.0677 31.2924L44.1299 31.1551C46.1692 31.1139 47.4439 31.6524 48.3796 32.6973C48.64 32.9611 48.8525 33.2457 49.2499 33.8623C48.1636 34.5546 48.1671 34.548 46.611 35.5554C46.2787 34.8395 45.7271 34.3902 45.1442 34.1949C44.2393 33.9207 43.0983 34.2188 42.8615 35.175C42.7795 35.4696 42.7964 35.7438 42.9269 36.2305C43.2935 37.0666 44.5239 37.43 45.6275 37.9372C48.8044 39.2257 49.8772 40.6072 50.141 42.2517C50.395 43.6675 50.0797 44.586 50.0316 44.723Z" fill="white"/>
<path d="M74.6172 35.3496V25.2812H76.4922V35.3496C76.4922 36.2871 76.3001 37.0781 75.916 37.7227C75.5319 38.3672 75.0013 38.8587 74.3242 39.1973C73.6536 39.5293 72.8822 39.6953 72.0098 39.6953C71.1374 39.6953 70.3626 39.5456 69.6855 39.2461C69.0085 38.9466 68.4779 38.4909 68.0938 37.8789C67.7096 37.2669 67.5176 36.4954 67.5176 35.5645H69.4023C69.4023 36.1634 69.513 36.6549 69.7344 37.0391C69.9557 37.4232 70.2617 37.7064 70.6523 37.8887C71.0495 38.071 71.502 38.1621 72.0098 38.1621C72.5046 38.1621 72.9473 38.0579 73.3379 37.8496C73.735 37.6348 74.0475 37.319 74.2754 36.9023C74.5033 36.4792 74.6172 35.9616 74.6172 35.3496ZM85.6426 37.6934V32.2539C85.6426 31.8372 85.5579 31.4759 85.3887 31.1699C85.2259 30.8574 84.9785 30.6165 84.6465 30.4473C84.3145 30.278 83.9043 30.1934 83.416 30.1934C82.9603 30.1934 82.5599 30.2715 82.2148 30.4277C81.8763 30.584 81.6094 30.7891 81.4141 31.043C81.2253 31.2969 81.1309 31.5703 81.1309 31.8633H79.3242C79.3242 31.4857 79.4219 31.1113 79.6172 30.7402C79.8125 30.3691 80.0924 30.0339 80.457 29.7344C80.8281 29.4284 81.2708 29.1875 81.7852 29.0117C82.306 28.8294 82.8854 28.7383 83.5234 28.7383C84.2917 28.7383 84.9688 28.8685 85.5547 29.1289C86.1471 29.3893 86.6094 29.7832 86.9414 30.3105C87.2799 30.8314 87.4492 31.4857 87.4492 32.2734V37.1953C87.4492 37.5469 87.4785 37.9212 87.5371 38.3184C87.6022 38.7155 87.6966 39.0573 87.8203 39.3438V39.5H85.9355C85.8444 39.2917 85.7728 39.015 85.7207 38.6699C85.6686 38.3184 85.6426 37.9928 85.6426 37.6934ZM85.9551 33.0938L85.9746 34.3633H84.1484C83.6341 34.3633 83.1751 34.4056 82.7715 34.4902C82.3678 34.5684 82.0293 34.6888 81.7559 34.8516C81.4824 35.0143 81.2741 35.2194 81.1309 35.4668C80.9876 35.7077 80.916 35.9909 80.916 36.3164C80.916 36.6484 80.9909 36.9512 81.1406 37.2246C81.2904 37.498 81.515 37.7161 81.8145 37.8789C82.1204 38.0352 82.4948 38.1133 82.9375 38.1133C83.4909 38.1133 83.9792 37.9961 84.4023 37.7617C84.8255 37.5273 85.1608 37.2409 85.4082 36.9023C85.6621 36.5638 85.7988 36.235 85.8184 35.916L86.5898 36.7852C86.5443 37.0586 86.4206 37.3613 86.2188 37.6934C86.0169 38.0254 85.7467 38.3444 85.4082 38.6504C85.0762 38.9499 84.679 39.2005 84.2168 39.4023C83.7611 39.5977 83.2467 39.6953 82.6738 39.6953C81.9577 39.6953 81.3294 39.5553 80.7891 39.2754C80.2552 38.9954 79.8385 38.6211 79.5391 38.1523C79.2461 37.6771 79.0996 37.1465 79.0996 36.5605C79.0996 35.9941 79.2103 35.4961 79.4316 35.0664C79.653 34.6302 79.972 34.2689 80.3887 33.9824C80.8053 33.6895 81.3066 33.4681 81.8926 33.3184C82.4785 33.1686 83.1328 33.0938 83.8555 33.0938H85.9551ZM93.3477 37.8691L96.2383 28.9336H98.084L94.2852 39.5H93.0742L93.3477 37.8691ZM90.9355 28.9336L93.9141 37.918L94.1191 39.5H92.9082L89.0801 28.9336H90.9355ZM105.896 37.6934V32.2539C105.896 31.8372 105.812 31.4759 105.643 31.1699C105.48 30.8574 105.232 30.6165 104.9 30.4473C104.568 30.278 104.158 30.1934 103.67 30.1934C103.214 30.1934 102.814 30.2715 102.469 30.4277C102.13 30.584 101.863 30.7891 101.668 31.043C101.479 31.2969 101.385 31.5703 101.385 31.8633H99.5781C99.5781 31.4857 99.6758 31.1113 99.8711 30.7402C100.066 30.3691 100.346 30.0339 100.711 29.7344C101.082 29.4284 101.525 29.1875 102.039 29.0117C102.56 28.8294 103.139 28.7383 103.777 28.7383C104.546 28.7383 105.223 28.8685 105.809 29.1289C106.401 29.3893 106.863 29.7832 107.195 30.3105C107.534 30.8314 107.703 31.4857 107.703 32.2734V37.1953C107.703 37.5469 107.732 37.9212 107.791 38.3184C107.856 38.7155 107.951 39.0573 108.074 39.3438V39.5H106.189C106.098 39.2917 106.027 39.015 105.975 38.6699C105.923 38.3184 105.896 37.9928 105.896 37.6934ZM106.209 33.0938L106.229 34.3633H104.402C103.888 34.3633 103.429 34.4056 103.025 34.4902C102.622 34.5684 102.283 34.6888 102.01 34.8516C101.736 35.0143 101.528 35.2194 101.385 35.4668C101.242 35.7077 101.17 35.9909 101.17 36.3164C101.17 36.6484 101.245 36.9512 101.395 37.2246C101.544 37.498 101.769 37.7161 102.068 37.8789C102.374 38.0352 102.749 38.1133 103.191 38.1133C103.745 38.1133 104.233 37.9961 104.656 37.7617C105.079 37.5273 105.415 37.2409 105.662 36.9023C105.916 36.5638 106.053 36.235 106.072 35.916L106.844 36.7852C106.798 37.0586 106.674 37.3613 106.473 37.6934C106.271 38.0254 106.001 38.3444 105.662 38.6504C105.33 38.9499 104.933 39.2005 104.471 39.4023C104.015 39.5977 103.501 39.6953 102.928 39.6953C102.212 39.6953 101.583 39.5553 101.043 39.2754C100.509 38.9954 100.092 38.6211 99.793 38.1523C99.5 37.6771 99.3535 37.1465 99.3535 36.5605C99.3535 35.9941 99.4642 35.4961 99.6855 35.0664C99.9069 34.6302 100.226 34.2689 100.643 33.9824C101.059 33.6895 101.561 33.4681 102.146 33.3184C102.732 33.1686 103.387 33.0938 104.109 33.0938H106.209ZM118.396 35.9062C118.396 35.5742 118.344 35.2812 118.24 35.0273C118.143 34.7669 117.967 34.5326 117.713 34.3242C117.465 34.1159 117.12 33.9173 116.678 33.7285C116.242 33.5397 115.688 33.3477 115.018 33.1523C114.314 32.944 113.68 32.7129 113.113 32.459C112.547 32.1986 112.062 31.9023 111.658 31.5703C111.255 31.2383 110.945 30.8574 110.73 30.4277C110.516 29.998 110.408 29.5065 110.408 28.9531C110.408 28.3997 110.522 27.8887 110.75 27.4199C110.978 26.9512 111.303 26.5443 111.727 26.1992C112.156 25.8477 112.667 25.5742 113.26 25.3789C113.852 25.1836 114.513 25.0859 115.242 25.0859C116.31 25.0859 117.215 25.291 117.957 25.7012C118.706 26.1048 119.275 26.6354 119.666 27.293C120.057 27.944 120.252 28.6406 120.252 29.3828H118.377C118.377 28.849 118.263 28.377 118.035 27.9668C117.807 27.5501 117.462 27.2246 117 26.9902C116.538 26.7493 115.952 26.6289 115.242 26.6289C114.572 26.6289 114.018 26.7298 113.582 26.9316C113.146 27.1335 112.82 27.4069 112.605 27.752C112.397 28.097 112.293 28.4909 112.293 28.9336C112.293 29.2331 112.355 29.5065 112.479 29.7539C112.609 29.9948 112.807 30.2194 113.074 30.4277C113.348 30.6361 113.693 30.8281 114.109 31.0039C114.533 31.1797 115.037 31.349 115.623 31.5117C116.43 31.7396 117.127 31.9935 117.713 32.2734C118.299 32.5534 118.781 32.8691 119.158 33.2207C119.542 33.5658 119.826 33.9596 120.008 34.4023C120.197 34.8385 120.291 35.3333 120.291 35.8867C120.291 36.4661 120.174 36.9902 119.939 37.459C119.705 37.9277 119.37 38.3281 118.934 38.6602C118.497 38.9922 117.973 39.2493 117.361 39.4316C116.756 39.6074 116.079 39.6953 115.33 39.6953C114.673 39.6953 114.025 39.6042 113.387 39.4219C112.755 39.2396 112.179 38.9661 111.658 38.6016C111.144 38.237 110.73 37.7878 110.418 37.2539C110.112 36.7135 109.959 36.0885 109.959 35.3789H111.834C111.834 35.8672 111.928 36.2871 112.117 36.6387C112.306 36.9837 112.563 37.2702 112.889 37.498C113.221 37.7259 113.595 37.8952 114.012 38.0059C114.435 38.11 114.874 38.1621 115.33 38.1621C115.988 38.1621 116.544 38.071 117 37.8887C117.456 37.7064 117.801 37.446 118.035 37.1074C118.276 36.7689 118.396 36.3685 118.396 35.9062ZM126.648 38.2109C127.078 38.2109 127.475 38.123 127.84 37.9473C128.204 37.7715 128.504 37.5306 128.738 37.2246C128.973 36.9121 129.106 36.5573 129.139 36.1602H130.857C130.825 36.7852 130.613 37.3678 130.223 37.9082C129.839 38.4421 129.334 38.875 128.709 39.207C128.084 39.5326 127.397 39.6953 126.648 39.6953C125.854 39.6953 125.161 39.5553 124.568 39.2754C123.982 38.9954 123.494 38.6113 123.104 38.123C122.719 37.6348 122.43 37.0749 122.234 36.4434C122.046 35.8053 121.951 35.1315 121.951 34.4219V34.0117C121.951 33.3021 122.046 32.6315 122.234 32C122.43 31.362 122.719 30.7988 123.104 30.3105C123.494 29.8223 123.982 29.4382 124.568 29.1582C125.161 28.8783 125.854 28.7383 126.648 28.7383C127.475 28.7383 128.198 28.9076 128.816 29.2461C129.435 29.5781 129.92 30.0339 130.271 30.6133C130.63 31.1862 130.825 31.8372 130.857 32.5664H129.139C129.106 32.1302 128.982 31.7363 128.768 31.3848C128.559 31.0332 128.273 30.7533 127.908 30.5449C127.55 30.3301 127.13 30.2227 126.648 30.2227C126.095 30.2227 125.63 30.3333 125.252 30.5547C124.881 30.7695 124.585 31.0625 124.363 31.4336C124.148 31.7982 123.992 32.2051 123.895 32.6543C123.803 33.097 123.758 33.5495 123.758 34.0117V34.4219C123.758 34.8841 123.803 35.3398 123.895 35.7891C123.986 36.2383 124.139 36.6452 124.354 37.0098C124.575 37.3743 124.871 37.6673 125.242 37.8887C125.62 38.1035 126.089 38.2109 126.648 38.2109ZM134.695 30.5938V39.5H132.889V28.9336H134.646L134.695 30.5938ZM137.996 28.875L137.986 30.5547C137.837 30.5221 137.693 30.5026 137.557 30.4961C137.426 30.4831 137.277 30.4766 137.107 30.4766C136.691 30.4766 136.323 30.5417 136.004 30.6719C135.685 30.8021 135.415 30.9844 135.193 31.2188C134.972 31.4531 134.796 31.7331 134.666 32.0586C134.542 32.3776 134.461 32.7292 134.422 33.1133L133.914 33.4062C133.914 32.7682 133.976 32.1693 134.1 31.6094C134.23 31.0495 134.428 30.5547 134.695 30.125C134.962 29.6888 135.301 29.3503 135.711 29.1094C136.128 28.862 136.622 28.7383 137.195 28.7383C137.326 28.7383 137.475 28.7546 137.645 28.7871C137.814 28.8132 137.931 28.8424 137.996 28.875ZM141.629 28.9336V39.5H139.812V28.9336H141.629ZM139.676 26.1309C139.676 25.8379 139.764 25.5905 139.939 25.3887C140.122 25.1868 140.389 25.0859 140.74 25.0859C141.085 25.0859 141.349 25.1868 141.531 25.3887C141.72 25.5905 141.814 25.8379 141.814 26.1309C141.814 26.4108 141.72 26.6517 141.531 26.8535C141.349 27.0488 141.085 27.1465 140.74 27.1465C140.389 27.1465 140.122 27.0488 139.939 26.8535C139.764 26.6517 139.676 26.4108 139.676 26.1309ZM146.336 30.9648V43.5625H144.52V28.9336H146.18L146.336 30.9648ZM153.455 34.1289V34.334C153.455 35.1022 153.364 35.8151 153.182 36.4727C152.999 37.1237 152.732 37.6901 152.381 38.1719C152.036 38.6536 151.609 39.028 151.102 39.2949C150.594 39.5618 150.011 39.6953 149.354 39.6953C148.683 39.6953 148.09 39.5846 147.576 39.3633C147.062 39.1419 146.626 38.8197 146.268 38.3965C145.91 37.9733 145.623 37.4655 145.408 36.873C145.2 36.2806 145.057 35.6133 144.979 34.8711V33.7773C145.057 32.9961 145.203 32.2962 145.418 31.6777C145.633 31.0592 145.916 30.5319 146.268 30.0957C146.626 29.653 147.059 29.3177 147.566 29.0898C148.074 28.8555 148.66 28.7383 149.324 28.7383C149.988 28.7383 150.577 28.8685 151.092 29.1289C151.606 29.3828 152.039 29.7474 152.391 30.2227C152.742 30.6979 153.006 31.2676 153.182 31.9316C153.364 32.5892 153.455 33.3216 153.455 34.1289ZM151.639 34.334V34.1289C151.639 33.6016 151.583 33.1068 151.473 32.6445C151.362 32.1758 151.189 31.7656 150.955 31.4141C150.727 31.056 150.434 30.776 150.076 30.5742C149.718 30.3659 149.292 30.2617 148.797 30.2617C148.341 30.2617 147.944 30.3398 147.605 30.4961C147.273 30.6523 146.99 30.8639 146.756 31.1309C146.521 31.3913 146.329 31.6908 146.18 32.0293C146.036 32.3613 145.929 32.7064 145.857 33.0645V35.5938C145.988 36.0495 146.17 36.4792 146.404 36.8828C146.639 37.2799 146.951 37.6022 147.342 37.8496C147.732 38.0905 148.224 38.2109 148.816 38.2109C149.305 38.2109 149.725 38.11 150.076 37.9082C150.434 37.6999 150.727 37.4167 150.955 37.0586C151.189 36.7005 151.362 36.2904 151.473 35.8281C151.583 35.3594 151.639 34.8613 151.639 34.334ZM160.184 28.9336V30.3203H154.471V28.9336H160.184ZM156.404 26.3652H158.211V36.8828C158.211 37.2409 158.266 37.5111 158.377 37.6934C158.488 37.8757 158.631 37.9961 158.807 38.0547C158.982 38.1133 159.171 38.1426 159.373 38.1426C159.523 38.1426 159.679 38.1296 159.842 38.1035C160.011 38.071 160.138 38.0449 160.223 38.0254L160.232 39.5C160.089 39.5456 159.9 39.5879 159.666 39.627C159.438 39.6725 159.161 39.6953 158.836 39.6953C158.393 39.6953 157.986 39.6074 157.615 39.4316C157.244 39.2559 156.948 38.9629 156.727 38.5527C156.512 38.1361 156.404 37.5762 156.404 36.873V26.3652Z" fill="white"/>
</svg>
