<svg width="146" height="66" viewBox="0 0 146 66" fill="none" xmlns="http://www.w3.org/2000/svg">
<rect x="0.5" y="0.5" width="145" height="65" rx="16.5" stroke="white"/>
<path d="M33.6667 45.2759C33.6667 45.2759 31.9516 46.2739 34.8889 46.6107C38.4479 47.0172 40.2666 46.9589 44.1875 46.2178C44.1875 46.2178 45.2204 46.8636 46.6602 47.4234C37.8675 51.1903 26.7614 47.205 33.6667 45.2759ZM32.5917 40.3594C32.5917 40.3594 30.6676 41.7838 33.6073 42.0882C37.4092 42.4807 40.4108 42.5127 45.6075 41.5125C45.6075 41.5125 46.3246 42.2411 47.4539 42.639C36.8252 45.7475 24.987 42.8837 32.5917 40.3594Z" fill="white"/>
<path d="M41.6486 32.0181C43.8163 34.5132 41.0801 36.7565 41.0801 36.7565C41.0801 36.7565 46.5808 33.9174 44.0551 30.3606C41.6953 27.0452 39.8864 25.3985 49.6803 19.7183C49.6803 19.7186 34.3065 23.5571 41.6486 32.0181Z" fill="white"/>
<path d="M53.277 48.913C53.277 48.913 54.5467 49.9599 51.8782 50.7691C46.8045 52.3061 30.7568 52.7695 26.2998 50.8306C24.6984 50.1333 27.7026 49.1666 28.6477 48.9626C29.6332 48.7493 30.1959 48.7881 30.1959 48.7881C28.4139 47.5336 18.6782 51.2526 25.2514 52.3194C43.1761 55.225 57.9257 51.0108 53.277 48.913ZM34.4924 35.2646C34.4924 35.2646 26.3304 37.2035 31.6023 37.9083C33.8286 38.2062 38.2647 38.1378 42.3997 37.791C45.778 37.5071 49.1683 36.9009 49.1683 36.9009C49.1683 36.9009 47.9781 37.4114 47.1161 37.9993C38.826 40.18 22.815 39.1643 27.4248 36.9351C31.322 35.0502 34.4924 35.2646 34.4924 35.2646ZM49.1345 43.4486C57.5609 39.0711 53.6645 34.8642 50.9449 35.4308C50.28 35.5694 49.9817 35.6899 49.9817 35.6899C49.9817 35.6899 50.2293 35.3017 50.7013 35.1347C56.0811 33.2441 60.2179 40.7124 48.9661 43.6706C48.9661 43.6698 49.0952 43.5529 49.1345 43.4486Z" fill="white"/>
<path d="M44.055 10.545C44.055 10.545 48.7207 15.2135 39.6286 22.3901C32.3373 28.1488 37.9661 31.4314 39.6261 35.1836C35.3695 31.3436 32.2473 27.9628 34.3416 24.8165C37.417 20.199 45.937 17.9594 44.055 10.545Z" fill="white"/>
<path d="M35.3206 55.3141C43.4071 55.8311 55.8282 55.0263 56.1222 51.1996C56.1222 51.1996 55.5569 52.6503 49.4385 53.8012C42.5357 55.1008 34.0204 54.9493 28.9716 54.1157C28.9716 54.116 30.0059 54.9723 35.3206 55.3141Z" fill="white"/>
<path d="M78.7393 35.3496V25.2812H80.6143V35.3496C80.6143 36.2871 80.4222 37.0781 80.0381 37.7227C79.654 38.3672 79.1234 38.8587 78.4463 39.1973C77.7757 39.5293 77.0042 39.6953 76.1318 39.6953C75.2594 39.6953 74.4847 39.5456 73.8076 39.2461C73.1305 38.9466 72.5999 38.4909 72.2158 37.8789C71.8317 37.2669 71.6396 36.4954 71.6396 35.5645H73.5244C73.5244 36.1634 73.6351 36.6549 73.8564 37.0391C74.0778 37.4232 74.3838 37.7064 74.7744 37.8887C75.1715 38.071 75.624 38.1621 76.1318 38.1621C76.6266 38.1621 77.0693 38.0579 77.46 37.8496C77.8571 37.6348 78.1696 37.319 78.3975 36.9023C78.6253 36.4792 78.7393 35.9616 78.7393 35.3496ZM89.7646 37.6934V32.2539C89.7646 31.8372 89.68 31.4759 89.5107 31.1699C89.348 30.8574 89.1006 30.6165 88.7686 30.4473C88.4365 30.278 88.0264 30.1934 87.5381 30.1934C87.0824 30.1934 86.682 30.2715 86.3369 30.4277C85.9984 30.584 85.7314 30.7891 85.5361 31.043C85.3473 31.2969 85.2529 31.5703 85.2529 31.8633H83.4463C83.4463 31.4857 83.5439 31.1113 83.7393 30.7402C83.9346 30.3691 84.2145 30.0339 84.5791 29.7344C84.9502 29.4284 85.3929 29.1875 85.9072 29.0117C86.4281 28.8294 87.0075 28.7383 87.6455 28.7383C88.4137 28.7383 89.0908 28.8685 89.6768 29.1289C90.2692 29.3893 90.7314 29.7832 91.0635 30.3105C91.402 30.8314 91.5713 31.4857 91.5713 32.2734V37.1953C91.5713 37.5469 91.6006 37.9212 91.6592 38.3184C91.7243 38.7155 91.8187 39.0573 91.9424 39.3438V39.5H90.0576C89.9665 39.2917 89.8949 39.015 89.8428 38.6699C89.7907 38.3184 89.7646 37.9928 89.7646 37.6934ZM90.0771 33.0938L90.0967 34.3633H88.2705C87.7562 34.3633 87.2972 34.4056 86.8936 34.4902C86.4899 34.5684 86.1514 34.6888 85.8779 34.8516C85.6045 35.0143 85.3962 35.2194 85.2529 35.4668C85.1097 35.7077 85.0381 35.9909 85.0381 36.3164C85.0381 36.6484 85.113 36.9512 85.2627 37.2246C85.4124 37.498 85.637 37.7161 85.9365 37.8789C86.2425 38.0352 86.6169 38.1133 87.0596 38.1133C87.613 38.1133 88.1012 37.9961 88.5244 37.7617C88.9476 37.5273 89.2829 37.2409 89.5303 36.9023C89.7842 36.5638 89.9209 36.235 89.9404 35.916L90.7119 36.7852C90.6663 37.0586 90.5426 37.3613 90.3408 37.6934C90.139 38.0254 89.8688 38.3444 89.5303 38.6504C89.1982 38.9499 88.8011 39.2005 88.3389 39.4023C87.8831 39.5977 87.3688 39.6953 86.7959 39.6953C86.0798 39.6953 85.4515 39.5553 84.9111 39.2754C84.3773 38.9954 83.9606 38.6211 83.6611 38.1523C83.3682 37.6771 83.2217 37.1465 83.2217 36.5605C83.2217 35.9941 83.3324 35.4961 83.5537 35.0664C83.7751 34.6302 84.0941 34.2689 84.5107 33.9824C84.9274 33.6895 85.4287 33.4681 86.0146 33.3184C86.6006 33.1686 87.2549 33.0938 87.9775 33.0938H90.0771ZM97.4697 37.8691L100.36 28.9336H102.206L98.4072 39.5H97.1963L97.4697 37.8691ZM95.0576 28.9336L98.0361 37.918L98.2412 39.5H97.0303L93.2021 28.9336H95.0576ZM110.019 37.6934V32.2539C110.019 31.8372 109.934 31.4759 109.765 31.1699C109.602 30.8574 109.354 30.6165 109.022 30.4473C108.69 30.278 108.28 30.1934 107.792 30.1934C107.336 30.1934 106.936 30.2715 106.591 30.4277C106.252 30.584 105.985 30.7891 105.79 31.043C105.601 31.2969 105.507 31.5703 105.507 31.8633H103.7C103.7 31.4857 103.798 31.1113 103.993 30.7402C104.188 30.3691 104.468 30.0339 104.833 29.7344C105.204 29.4284 105.647 29.1875 106.161 29.0117C106.682 28.8294 107.261 28.7383 107.899 28.7383C108.668 28.7383 109.345 28.8685 109.931 29.1289C110.523 29.3893 110.985 29.7832 111.317 30.3105C111.656 30.8314 111.825 31.4857 111.825 32.2734V37.1953C111.825 37.5469 111.854 37.9212 111.913 38.3184C111.978 38.7155 112.073 39.0573 112.196 39.3438V39.5H110.312C110.22 39.2917 110.149 39.015 110.097 38.6699C110.045 38.3184 110.019 37.9928 110.019 37.6934ZM110.331 33.0938L110.351 34.3633H108.524C108.01 34.3633 107.551 34.4056 107.147 34.4902C106.744 34.5684 106.405 34.6888 106.132 34.8516C105.858 35.0143 105.65 35.2194 105.507 35.4668C105.364 35.7077 105.292 35.9909 105.292 36.3164C105.292 36.6484 105.367 36.9512 105.517 37.2246C105.666 37.498 105.891 37.7161 106.19 37.8789C106.496 38.0352 106.871 38.1133 107.313 38.1133C107.867 38.1133 108.355 37.9961 108.778 37.7617C109.201 37.5273 109.537 37.2409 109.784 36.9023C110.038 36.5638 110.175 36.235 110.194 35.916L110.966 36.7852C110.92 37.0586 110.797 37.3613 110.595 37.6934C110.393 38.0254 110.123 38.3444 109.784 38.6504C109.452 38.9499 109.055 39.2005 108.593 39.4023C108.137 39.5977 107.623 39.6953 107.05 39.6953C106.334 39.6953 105.705 39.5553 105.165 39.2754C104.631 38.9954 104.215 38.6211 103.915 38.1523C103.622 37.6771 103.476 37.1465 103.476 36.5605C103.476 35.9941 103.586 35.4961 103.808 35.0664C104.029 34.6302 104.348 34.2689 104.765 33.9824C105.181 33.6895 105.683 33.4681 106.269 33.3184C106.854 33.1686 107.509 33.0938 108.231 33.0938H110.331Z" fill="white"/>
</svg>
