<svg width="36" height="36" viewBox="0 0 36 36" fill="none" xmlns="http://www.w3.org/2000/svg">
<path d="M0 0V36H36V0H0ZM19.0423 30.6757C18.5109 31.7555 17.4966 32.4648 16.3212 32.8072C14.5152 33.222 12.7878 32.9855 11.5027 32.2142C10.6428 31.6866 9.97114 30.8745 9.51523 29.9388L12.257 28.2597C12.2809 28.2698 12.3529 28.4 12.4491 28.5682C12.7987 29.154 13.1003 29.5687 13.693 29.8598C14.2753 30.0586 15.5537 30.1856 16.0474 29.1609C16.3489 28.6396 16.253 26.964 16.253 25.1101C16.2527 22.197 16.2662 19.296 16.2662 16.416H19.6384C19.6384 19.584 19.6557 22.5844 19.6384 25.6758C19.6456 27.5708 19.8101 29.2602 19.0423 30.6757ZM33.0316 29.723C31.8594 33.7326 25.3241 33.8627 22.7125 31.2137C22.1607 30.5902 21.8148 30.2645 21.4857 29.5448C22.8735 28.7464 22.8735 28.7464 24.224 27.9651C24.9575 29.0926 25.6357 29.7127 26.856 29.9664C28.5114 30.1686 30.1769 29.5998 29.8034 27.8415C29.4195 26.4056 26.4136 26.0562 24.368 24.5206C22.2912 23.1258 21.8045 19.7366 23.5112 17.8001C24.08 17.0839 25.05 16.5493 26.0677 16.2924L27.1299 16.1551C29.1692 16.1139 30.4439 16.6524 31.3796 17.6973C31.64 17.9611 31.8525 18.2457 32.2499 18.8623C31.1636 19.5546 31.1671 19.548 29.611 20.5554C29.2787 19.8395 28.7271 19.3902 28.1442 19.1949C27.2393 18.9207 26.0983 19.2188 25.8615 20.175C25.7795 20.4696 25.7964 20.7438 25.9269 21.2305C26.2935 22.0666 27.5239 22.43 28.6275 22.9372C31.8044 24.2257 32.8772 25.6072 33.141 27.2517C33.395 28.6675 33.0797 29.586 33.0316 29.723Z" fill="white"/>
</svg>
