<svg width="44" height="50" viewBox="0 0 44 50" fill="none" xmlns="http://www.w3.org/2000/svg">
<path d="M16.7041 43.4303C15.4428 44.1591 15.2033 44.2449 14.0177 44.6634C13.7311 44.7614 13.297 44.9349 14.1815 45.4412L20.1194 48.9896C20.6865 49.3224 21.3417 49.4959 21.9867 49.4959L21.9908 49.5C22.6439 49.5 23.2889 49.3244 23.8561 48.9937L41.6327 38.6283C42.7875 37.9485 43.5 36.6929 43.5 35.3515V14.6331C43.5 13.2816 42.7895 12.026 41.6327 11.3563L23.8561 0.980802C22.7402 0.339733 21.2475 0.339733 20.1214 0.980802L2.36529 11.3461C1.21254 12.0178 0.5 13.2816 0.5 14.6229V35.3413C0.5 36.6929 1.21049 37.9485 2.36529 38.6181L7.0234 41.3315C9.27568 42.4605 10.0824 42.4605 11.1123 42.4605C14.4518 42.4605 16.3765 40.4189 16.3765 36.8603V16.3951C16.3765 16.1052 16.1369 15.8806 15.8564 15.8806H13.6041C13.3154 15.8806 13.0841 16.1031 13.0841 16.3951V36.8501C13.0841 38.4344 11.4665 40.0003 8.81908 38.6692L3.95007 35.8293C3.78013 35.7415 3.67366 35.5475 3.67366 35.3515V14.6331C3.67366 14.431 3.78013 14.235 3.95212 14.137L21.7082 3.7717C21.87 3.6737 22.0932 3.6737 22.257 3.7717L40.0233 14.1268C40.1953 14.233 40.3018 14.4188 40.3018 14.6229V35.3515C40.3018 35.5435 40.1973 35.7395 40.0335 35.8375L22.257 46.2028C22.1034 46.3008 21.872 46.3008 21.7082 46.2028L17.1464 43.4711C17.0112 43.3833 16.8392 43.3527 16.7041 43.4303Z" fill="white"/>
<path d="M27.7633 32.3323C23.1266 32.3323 22.1097 31.1292 21.7707 28.754C21.7324 28.4994 21.5245 28.3146 21.2683 28.3146H19.0024C18.7179 28.3146 18.5 28.5487 18.5 28.832C18.5 31.8724 20.1021 35.5 27.7734 35.5C33.31 35.4897 36.5 33.2335 36.5 29.3021L36.4939 29.3041C36.4939 25.4035 33.9335 24.3668 28.5563 23.6339C23.1125 22.8907 22.5637 22.5088 22.5637 21.199C22.5637 20.1151 23.0298 18.6677 27.0591 18.6677C30.6547 18.6677 31.9823 19.4684 32.5312 21.971C32.5776 22.207 32.7874 22.3815 33.0255 22.3815H35.3015C35.4427 22.3815 35.5759 22.3241 35.6707 22.2153C35.7656 22.1064 35.812 21.9607 35.8039 21.8149C35.4528 17.5037 32.6744 15.5 27.0591 15.5C22.0613 15.5 19.0831 17.672 19.0831 21.3161C19.0831 25.266 22.0512 26.3622 26.8412 26.8488C32.5796 27.4277 33.0235 28.2961 33.0235 29.4602C33.0275 31.4741 31.4537 32.3323 27.7633 32.3323Z" fill="white"/>
</svg>
