<svg width="167" height="66" viewBox="0 0 167 66" fill="none" xmlns="http://www.w3.org/2000/svg">
<rect x="0.5" y="0.5" width="166" height="65" rx="16.5" stroke="white"/>
<path d="M36.7041 51.4303C35.4428 52.1591 35.2033 52.2449 34.0177 52.6634C33.7311 52.7614 33.297 52.9349 34.1815 53.4412L40.1194 56.9896C40.6865 57.3224 41.3417 57.4959 41.9867 57.4959L41.9908 57.5C42.6439 57.5 43.2889 57.3244 43.8561 56.9937L61.6327 46.6283C62.7875 45.9485 63.5 44.6929 63.5 43.3515V22.6331C63.5 21.2816 62.7895 20.026 61.6327 19.3563L43.8561 8.9808C42.7402 8.33973 41.2475 8.33973 40.1214 8.9808L22.3653 19.3461C21.2125 20.0178 20.5 21.2816 20.5 22.6229V43.3413C20.5 44.6929 21.2105 45.9485 22.3653 46.6181L27.0234 49.3315C29.2757 50.4605 30.0824 50.4605 31.1123 50.4605C34.4518 50.4605 36.3765 48.4189 36.3765 44.8603V24.3951C36.3765 24.1052 36.1369 23.8806 35.8564 23.8806H33.6041C33.3154 23.8806 33.0841 24.1031 33.0841 24.3951V44.8501C33.0841 46.4344 31.4665 48.0003 28.8191 46.6692L23.9501 43.8293C23.7801 43.7415 23.6737 43.5475 23.6737 43.3515V22.6331C23.6737 22.431 23.7801 22.235 23.9521 22.137L41.7082 11.7717C41.87 11.6737 42.0932 11.6737 42.257 11.7717L60.0233 22.1268C60.1953 22.233 60.3018 22.4188 60.3018 22.6229V43.3515C60.3018 43.5435 60.1973 43.7395 60.0335 43.8375L42.257 54.2028C42.1034 54.3008 41.872 54.3008 41.7082 54.2028L37.1464 51.4711C37.0112 51.3833 36.8392 51.3527 36.7041 51.4303Z" fill="white"/>
<path d="M47.7633 40.3323C43.1266 40.3323 42.1097 39.1292 41.7707 36.754C41.7324 36.4994 41.5245 36.3146 41.2683 36.3146H39.0024C38.7179 36.3146 38.5 36.5487 38.5 36.832C38.5 39.8724 40.1021 43.5 47.7734 43.5C53.31 43.4897 56.5 41.2335 56.5 37.3021L56.4939 37.3041C56.4939 33.4035 53.9335 32.3668 48.5563 31.6339C43.1125 30.8907 42.5637 30.5088 42.5637 29.199C42.5637 28.1151 43.0298 26.6677 47.0591 26.6677C50.6547 26.6677 51.9823 27.4684 52.5312 29.971C52.5776 30.207 52.7874 30.3815 53.0255 30.3815H55.3015C55.4427 30.3815 55.5759 30.3241 55.6707 30.2153C55.7656 30.1064 55.812 29.9607 55.8039 29.8149C55.4528 25.5037 52.6744 23.5 47.0591 23.5C42.0613 23.5 39.0831 25.672 39.0831 29.3161C39.0831 33.266 42.0512 34.3622 46.8412 34.8488C52.5796 35.4277 53.0235 36.2961 53.0235 37.4602C53.0275 39.4741 51.4537 40.3323 47.7633 40.3323Z" fill="white"/>
<path d="M91.0879 25.2812V39.5H89.1934L82.0352 28.5332V39.5H80.1504V25.2812H82.0352L89.2227 36.2773V25.2812H91.0879ZM93.6758 34.334V34.1094C93.6758 33.3477 93.7865 32.6413 94.0078 31.9902C94.2292 31.3327 94.5482 30.763 94.9648 30.2812C95.3815 29.793 95.8861 29.4154 96.4785 29.1484C97.071 28.875 97.735 28.7383 98.4707 28.7383C99.2129 28.7383 99.8802 28.875 100.473 29.1484C101.072 29.4154 101.579 29.793 101.996 30.2812C102.419 30.763 102.742 31.3327 102.963 31.9902C103.184 32.6413 103.295 33.3477 103.295 34.1094V34.334C103.295 35.0957 103.184 35.8021 102.963 36.4531C102.742 37.1042 102.419 37.6738 101.996 38.1621C101.579 38.6439 101.075 39.0215 100.482 39.2949C99.8965 39.5618 99.2324 39.6953 98.4902 39.6953C97.748 39.6953 97.0807 39.5618 96.4883 39.2949C95.8958 39.0215 95.388 38.6439 94.9648 38.1621C94.5482 37.6738 94.2292 37.1042 94.0078 36.4531C93.7865 35.8021 93.6758 35.0957 93.6758 34.334ZM95.4824 34.1094V34.334C95.4824 34.8613 95.5443 35.3594 95.668 35.8281C95.7917 36.2904 95.9772 36.7005 96.2246 37.0586C96.4785 37.4167 96.7943 37.6999 97.1719 37.9082C97.5495 38.11 97.9889 38.2109 98.4902 38.2109C98.985 38.2109 99.418 38.11 99.7891 37.9082C100.167 37.6999 100.479 37.4167 100.727 37.0586C100.974 36.7005 101.16 36.2904 101.283 35.8281C101.413 35.3594 101.479 34.8613 101.479 34.334V34.1094C101.479 33.5885 101.413 33.097 101.283 32.6348C101.16 32.166 100.971 31.7526 100.717 31.3945C100.469 31.0299 100.157 30.7435 99.7793 30.5352C99.4082 30.3268 98.972 30.2227 98.4707 30.2227C97.9759 30.2227 97.5397 30.3268 97.1621 30.5352C96.791 30.7435 96.4785 31.0299 96.2246 31.3945C95.9772 31.7526 95.7917 32.166 95.668 32.6348C95.5443 33.097 95.4824 33.5885 95.4824 34.1094ZM112.221 37.4492V24.5H114.037V39.5H112.377L112.221 37.4492ZM105.111 34.334V34.1289C105.111 33.3216 105.209 32.5892 105.404 31.9316C105.606 31.2676 105.889 30.6979 106.254 30.2227C106.625 29.7474 107.064 29.3828 107.572 29.1289C108.087 28.8685 108.66 28.7383 109.291 28.7383C109.955 28.7383 110.535 28.8555 111.029 29.0898C111.531 29.3177 111.954 29.653 112.299 30.0957C112.65 30.5319 112.927 31.0592 113.129 31.6777C113.331 32.2962 113.471 32.9961 113.549 33.7773V34.6758C113.477 35.4505 113.337 36.1471 113.129 36.7656C112.927 37.3841 112.65 37.9115 112.299 38.3477C111.954 38.7839 111.531 39.1191 111.029 39.3535C110.528 39.5814 109.942 39.6953 109.271 39.6953C108.653 39.6953 108.087 39.5618 107.572 39.2949C107.064 39.028 106.625 38.6536 106.254 38.1719C105.889 37.6901 105.606 37.1237 105.404 36.4727C105.209 35.8151 105.111 35.1022 105.111 34.334ZM106.928 34.1289V34.334C106.928 34.8613 106.98 35.3561 107.084 35.8184C107.195 36.2806 107.364 36.6875 107.592 37.0391C107.82 37.3906 108.109 37.6673 108.461 37.8691C108.812 38.0645 109.232 38.1621 109.721 38.1621C110.32 38.1621 110.811 38.0352 111.195 37.7812C111.586 37.5273 111.898 37.1921 112.133 36.7754C112.367 36.3587 112.549 35.9062 112.68 35.418V33.0645C112.602 32.7064 112.488 32.3613 112.338 32.0293C112.195 31.6908 112.006 31.3913 111.771 31.1309C111.544 30.8639 111.26 30.6523 110.922 30.4961C110.59 30.3398 110.196 30.2617 109.74 30.2617C109.245 30.2617 108.819 30.3659 108.461 30.5742C108.109 30.776 107.82 31.056 107.592 31.4141C107.364 31.7656 107.195 32.1758 107.084 32.6445C106.98 33.1068 106.928 33.6016 106.928 34.1289ZM121.234 39.6953C120.499 39.6953 119.831 39.5716 119.232 39.3242C118.64 39.0703 118.129 38.7155 117.699 38.2598C117.276 37.804 116.951 37.2637 116.723 36.6387C116.495 36.0137 116.381 35.3301 116.381 34.5879V34.1777C116.381 33.3184 116.508 32.5534 116.762 31.8828C117.016 31.2057 117.361 30.6328 117.797 30.1641C118.233 29.6953 118.728 29.3405 119.281 29.0996C119.835 28.8587 120.408 28.7383 121 28.7383C121.755 28.7383 122.406 28.8685 122.953 29.1289C123.507 29.3893 123.959 29.7539 124.311 30.2227C124.662 30.6849 124.923 31.2318 125.092 31.8633C125.261 32.4883 125.346 33.1719 125.346 33.9141V34.7246H117.455V33.25H123.539V33.1133C123.513 32.6445 123.415 32.1888 123.246 31.7461C123.083 31.3034 122.823 30.9388 122.465 30.6523C122.107 30.3659 121.618 30.2227 121 30.2227C120.59 30.2227 120.212 30.3105 119.867 30.4863C119.522 30.6556 119.226 30.9095 118.979 31.248C118.731 31.5866 118.539 32 118.402 32.4883C118.266 32.9766 118.197 33.5397 118.197 34.1777V34.5879C118.197 35.0892 118.266 35.5612 118.402 36.0039C118.546 36.4401 118.751 36.8242 119.018 37.1562C119.291 37.4883 119.62 37.7487 120.004 37.9375C120.395 38.1263 120.837 38.2207 121.332 38.2207C121.97 38.2207 122.51 38.0905 122.953 37.8301C123.396 37.5697 123.783 37.2214 124.115 36.7852L125.209 37.6543C124.981 37.9993 124.691 38.3281 124.34 38.6406C123.988 38.9531 123.555 39.207 123.041 39.4023C122.533 39.5977 121.931 39.6953 121.234 39.6953ZM127.484 38.543C127.484 38.237 127.579 37.9798 127.768 37.7715C127.963 37.5566 128.243 37.4492 128.607 37.4492C128.972 37.4492 129.249 37.5566 129.438 37.7715C129.633 37.9798 129.73 38.237 129.73 38.543C129.73 38.8424 129.633 39.0964 129.438 39.3047C129.249 39.513 128.972 39.6172 128.607 39.6172C128.243 39.6172 127.963 39.513 127.768 39.3047C127.579 39.0964 127.484 38.8424 127.484 38.543ZM132.777 28.9336H134.594V40.7598C134.594 41.4043 134.49 41.9512 134.281 42.4004C134.079 42.8496 133.773 43.1882 133.363 43.416C132.96 43.6504 132.449 43.7676 131.83 43.7676C131.667 43.7676 131.479 43.7513 131.264 43.7188C131.042 43.6862 130.857 43.6471 130.707 43.6016L130.717 42.1465C130.84 42.1725 130.98 42.1921 131.137 42.2051C131.293 42.2246 131.43 42.2344 131.547 42.2344C131.814 42.2344 132.038 42.1855 132.221 42.0879C132.403 41.9902 132.54 41.834 132.631 41.6191C132.729 41.4043 132.777 41.1178 132.777 40.7598V28.9336ZM132.592 26.1309C132.592 25.8379 132.683 25.5905 132.865 25.3887C133.048 25.1868 133.311 25.0859 133.656 25.0859C134.008 25.0859 134.275 25.1868 134.457 25.3887C134.639 25.5905 134.73 25.8379 134.73 26.1309C134.73 26.4108 134.639 26.6517 134.457 26.8535C134.275 27.0488 134.008 27.1465 133.656 27.1465C133.311 27.1465 133.048 27.0488 132.865 26.8535C132.683 26.6517 132.592 26.4108 132.592 26.1309ZM143.666 36.6973C143.666 36.4368 143.607 36.196 143.49 35.9746C143.38 35.7467 143.148 35.5417 142.797 35.3594C142.452 35.1706 141.931 35.0078 141.234 34.8711C140.648 34.7474 140.118 34.6009 139.643 34.4316C139.174 34.2624 138.773 34.0573 138.441 33.8164C138.116 33.5755 137.865 33.2923 137.689 32.9668C137.514 32.6413 137.426 32.2604 137.426 31.8242C137.426 31.4076 137.517 31.0137 137.699 30.6426C137.888 30.2715 138.152 29.9427 138.49 29.6562C138.835 29.3698 139.249 29.1452 139.73 28.9824C140.212 28.8197 140.749 28.7383 141.342 28.7383C142.188 28.7383 142.911 28.888 143.51 29.1875C144.109 29.487 144.568 29.8874 144.887 30.3887C145.206 30.8835 145.365 31.4336 145.365 32.0391H143.559C143.559 31.7461 143.471 31.4629 143.295 31.1895C143.126 30.9095 142.875 30.6784 142.543 30.4961C142.217 30.3138 141.817 30.2227 141.342 30.2227C140.84 30.2227 140.434 30.3008 140.121 30.457C139.815 30.6068 139.59 30.7988 139.447 31.0332C139.311 31.2676 139.242 31.515 139.242 31.7754C139.242 31.9707 139.275 32.1465 139.34 32.3027C139.411 32.4525 139.535 32.5924 139.711 32.7227C139.887 32.8464 140.134 32.9635 140.453 33.0742C140.772 33.1849 141.179 33.2956 141.674 33.4062C142.54 33.6016 143.253 33.8359 143.812 34.1094C144.372 34.3828 144.789 34.7181 145.062 35.1152C145.336 35.5124 145.473 35.9941 145.473 36.5605C145.473 37.0228 145.375 37.446 145.18 37.8301C144.991 38.2142 144.714 38.5462 144.35 38.8262C143.992 39.0996 143.562 39.3145 143.061 39.4707C142.566 39.6204 142.009 39.6953 141.391 39.6953C140.46 39.6953 139.672 39.5293 139.027 39.1973C138.383 38.8652 137.895 38.4355 137.562 37.9082C137.23 37.3809 137.064 36.8242 137.064 36.2383H138.881C138.907 36.7331 139.05 37.127 139.311 37.4199C139.571 37.7064 139.89 37.9115 140.268 38.0352C140.645 38.1523 141.02 38.2109 141.391 38.2109C141.885 38.2109 142.299 38.1458 142.631 38.0156C142.969 37.8854 143.227 37.7064 143.402 37.4785C143.578 37.2507 143.666 36.9902 143.666 36.6973Z" fill="white"/>
</svg>
