<svg width="165" height="66" viewBox="0 0 165 66" fill="none" xmlns="http://www.w3.org/2000/svg">
<rect x="0.5" y="0.5" width="164" height="65" rx="16.5" stroke="white"/>
<path d="M59.2226 43.0572C62.138 43.0572 63.216 41.0238 64.2292 37.9753C65.2792 34.8358 65.2337 31.8154 64.2292 27.7939C63.5065 24.8977 62.1398 22.712 59.2226 22.712H55.4653V27.1587C55.4653 30.6079 52.5394 33.5146 49.2039 33.5146H39.1905C36.4518 33.5146 34.1838 35.8578 34.1838 38.6053V48.1497C34.1838 50.8674 36.5463 52.4616 39.1905 53.2404C42.358 54.1679 45.4065 54.3359 49.2022 53.2404C51.7239 52.5089 54.2089 51.0354 54.2089 48.1497V44.333H44.2042V43.059H59.2226V43.0572ZM49.8304 46.874C50.8699 46.874 51.7151 47.7279 51.7151 48.7779C51.7151 49.8384 50.8716 50.6907 49.8304 50.6907C49.3276 50.6847 48.8474 50.4803 48.4945 50.1221C48.1415 49.7639 47.9443 49.2808 47.9457 48.7779C47.9457 48.2763 48.1436 47.7949 48.4965 47.4384C48.8494 47.0819 49.3288 46.879 49.8304 46.874Z" fill="white"/>
<path d="M29.0263 43.059H32.4668V38.4828C32.4668 35.1736 35.3263 32.2564 38.7282 32.2564H48.7399C51.5241 32.2564 53.7466 29.9604 53.7466 27.1657V17.6143C53.7466 14.8966 51.4593 12.8596 48.7399 12.4028C45.3834 11.8481 41.7364 11.8796 38.7282 12.4133L38.73 12.4116C34.4915 13.1606 33.725 14.7251 33.725 17.6213V21.438H43.7472V22.7137H29.9643C27.0489 22.7137 24.4974 24.4672 23.7029 27.7957C22.7842 31.6124 22.7474 33.9923 23.7029 37.9771C24.4134 40.9398 26.1126 43.059 29.0263 43.059ZM38.1017 18.8883C37.5995 18.885 37.1191 18.6828 36.7658 18.3259C36.4125 17.9689 36.2151 17.4865 36.217 16.9843C36.2151 16.4813 36.4122 15.9979 36.7653 15.6396C37.1183 15.2813 37.5987 15.0771 38.1017 15.0716C39.1342 15.0716 39.9865 15.9326 39.9865 16.9843C39.9865 18.036 39.143 18.8883 38.1017 18.8883Z" fill="white"/>
<path d="M86.8943 33.9238H83.0955V32.3906H86.8943C87.63 32.3906 88.2257 32.2734 88.6814 32.0391C89.1371 31.8047 89.4692 31.4792 89.6775 31.0625C89.8923 30.6458 89.9998 30.1706 89.9998 29.6367C89.9998 29.1484 89.8923 28.6895 89.6775 28.2598C89.4692 27.8301 89.1371 27.485 88.6814 27.2246C88.2257 26.9577 87.63 26.8242 86.8943 26.8242H83.5349V39.5H81.6501V25.2812H86.8943C87.9685 25.2812 88.8767 25.4668 89.6189 25.8379C90.3611 26.209 90.9242 26.7233 91.3083 27.3809C91.6925 28.0319 91.8845 28.7773 91.8845 29.6172C91.8845 30.5286 91.6925 31.3066 91.3083 31.9512C90.9242 32.5957 90.3611 33.0872 89.6189 33.4258C88.8767 33.7578 87.9685 33.9238 86.8943 33.9238ZM97.1189 38.4062L100.058 28.9336H101.992L97.7537 41.1309C97.656 41.3913 97.5258 41.6712 97.363 41.9707C97.2068 42.2767 97.005 42.5664 96.7576 42.8398C96.5102 43.1133 96.2107 43.3346 95.8591 43.5039C95.5141 43.6797 95.1007 43.7676 94.6189 43.7676C94.4757 43.7676 94.2934 43.748 94.072 43.709C93.8507 43.6699 93.6944 43.6374 93.6033 43.6113L93.5935 42.1465C93.6456 42.153 93.727 42.1595 93.8376 42.166C93.9548 42.179 94.0362 42.1855 94.0818 42.1855C94.4919 42.1855 94.8403 42.1302 95.1267 42.0195C95.4132 41.9154 95.6541 41.7363 95.8494 41.4824C96.0512 41.235 96.2237 40.8932 96.3669 40.457L97.1189 38.4062ZM94.9607 28.9336L97.7048 37.1367L98.1736 39.041L96.8748 39.7051L92.988 28.9336H94.9607ZM108.047 28.9336V30.3203H102.334V28.9336H108.047ZM104.267 26.3652H106.074V36.8828C106.074 37.2409 106.129 37.5111 106.24 37.6934C106.351 37.8757 106.494 37.9961 106.67 38.0547C106.845 38.1133 107.034 38.1426 107.236 38.1426C107.386 38.1426 107.542 38.1296 107.705 38.1035C107.874 38.071 108.001 38.0449 108.086 38.0254L108.095 39.5C107.952 39.5456 107.763 39.5879 107.529 39.627C107.301 39.6725 107.024 39.6953 106.699 39.6953C106.256 39.6953 105.849 39.6074 105.478 39.4316C105.107 39.2559 104.811 38.9629 104.59 38.5527C104.375 38.1361 104.267 37.5762 104.267 36.873V26.3652ZM111.972 24.5V39.5H110.166V24.5H111.972ZM111.543 33.8164L110.791 33.7871C110.797 33.0645 110.905 32.3971 111.113 31.7852C111.321 31.1667 111.614 30.6296 111.992 30.1738C112.37 29.7181 112.819 29.3665 113.34 29.1191C113.867 28.8652 114.45 28.7383 115.088 28.7383C115.608 28.7383 116.077 28.8099 116.494 28.9531C116.911 29.0898 117.265 29.3112 117.558 29.6172C117.858 29.9232 118.086 30.3203 118.242 30.8086C118.398 31.2904 118.476 31.8796 118.476 32.5762V39.5H116.66V32.5566C116.66 32.0033 116.579 31.5605 116.416 31.2285C116.253 30.89 116.015 30.6458 115.703 30.4961C115.39 30.3398 115.006 30.2617 114.551 30.2617C114.101 30.2617 113.691 30.3561 113.32 30.5449C112.955 30.7337 112.64 30.9941 112.373 31.3262C112.112 31.6582 111.907 32.0391 111.758 32.4688C111.614 32.8919 111.543 33.3411 111.543 33.8164ZM120.703 34.334V34.1094C120.703 33.3477 120.814 32.6413 121.035 31.9902C121.256 31.3327 121.575 30.763 121.992 30.2812C122.409 29.793 122.913 29.4154 123.506 29.1484C124.098 28.875 124.762 28.7383 125.498 28.7383C126.24 28.7383 126.907 28.875 127.5 29.1484C128.099 29.4154 128.607 29.793 129.023 30.2812C129.446 30.763 129.769 31.3327 129.99 31.9902C130.211 32.6413 130.322 33.3477 130.322 34.1094V34.334C130.322 35.0957 130.211 35.8021 129.99 36.4531C129.769 37.1042 129.446 37.6738 129.023 38.1621C128.607 38.6439 128.102 39.0215 127.51 39.2949C126.924 39.5618 126.26 39.6953 125.517 39.6953C124.775 39.6953 124.108 39.5618 123.515 39.2949C122.923 39.0215 122.415 38.6439 121.992 38.1621C121.575 37.6738 121.256 37.1042 121.035 36.4531C120.814 35.8021 120.703 35.0957 120.703 34.334ZM122.51 34.1094V34.334C122.51 34.8613 122.571 35.3594 122.695 35.8281C122.819 36.2904 123.004 36.7005 123.252 37.0586C123.506 37.4167 123.821 37.6999 124.199 37.9082C124.577 38.11 125.016 38.2109 125.517 38.2109C126.012 38.2109 126.445 38.11 126.816 37.9082C127.194 37.6999 127.506 37.4167 127.754 37.0586C128.001 36.7005 128.187 36.2904 128.31 35.8281C128.441 35.3594 128.506 34.8613 128.506 34.334V34.1094C128.506 33.5885 128.441 33.097 128.31 32.6348C128.187 32.166 127.998 31.7526 127.744 31.3945C127.497 31.0299 127.184 30.7435 126.806 30.5352C126.435 30.3268 125.999 30.2227 125.498 30.2227C125.003 30.2227 124.567 30.3268 124.189 30.5352C123.818 30.7435 123.506 31.0299 123.252 31.3945C123.004 31.7526 122.819 32.166 122.695 32.6348C122.571 33.097 122.51 33.5885 122.51 34.1094ZM134.394 31.1895V39.5H132.588V28.9336H134.297L134.394 31.1895ZM133.965 33.8164L133.213 33.7871C133.219 33.0645 133.327 32.3971 133.535 31.7852C133.743 31.1667 134.036 30.6296 134.414 30.1738C134.791 29.7181 135.241 29.3665 135.761 29.1191C136.289 28.8652 136.872 28.7383 137.51 28.7383C138.03 28.7383 138.499 28.8099 138.916 28.9531C139.332 29.0898 139.687 29.3112 139.98 29.6172C140.28 29.9232 140.508 30.3203 140.664 30.8086C140.82 31.2904 140.898 31.8796 140.898 32.5762V39.5H139.082V32.5566C139.082 32.0033 139 31.5605 138.838 31.2285C138.675 30.89 138.437 30.6458 138.125 30.4961C137.812 30.3398 137.428 30.2617 136.972 30.2617C136.523 30.2617 136.113 30.3561 135.742 30.5449C135.377 30.7337 135.062 30.9941 134.795 31.3262C134.534 31.6582 134.329 32.0391 134.179 32.4688C134.036 32.8919 133.965 33.3411 133.965 33.8164Z" fill="white"/>
</svg>
