<svg width="149" height="66" viewBox="0 0 149 66" fill="none" xmlns="http://www.w3.org/2000/svg">
<rect x="0.5" y="0.5" width="148" height="65" rx="16.5" stroke="white"/>
<path d="M43.5706 36.6774C45.6032 36.6774 47.251 35.0297 47.251 32.997C47.251 30.9644 45.6032 29.3166 43.5706 29.3166C41.5379 29.3166 39.8901 30.9644 39.8901 32.997C39.8901 35.0297 41.5379 36.6774 43.5706 36.6774Z" fill="white"/>
<path d="M30.738 39.5145C31.0997 39.6345 31.4614 39.7562 31.8316 39.8608C31.7117 40.3425 31.6071 40.8173 31.5094 41.3076C30.666 45.768 31.3242 49.3027 33.4293 50.5164C35.5995 51.7694 39.2474 50.4838 42.7992 47.3742C43.0803 47.1256 43.3615 46.8685 43.6426 46.5942C43.9957 46.9405 44.366 47.2696 44.7346 47.5902C48.1733 50.5472 51.5726 51.7437 53.6708 50.5318C55.841 49.2787 56.5472 45.4783 55.6318 40.8499C55.5576 40.4868 55.4771 40.125 55.3901 39.7648C55.6473 39.6928 55.8958 39.6122 56.1461 39.5316C60.7831 37.9974 64.1412 35.5135 64.1412 32.9662C64.1412 30.532 60.9751 28.1698 56.6038 26.6664C56.1723 26.5229 55.7386 26.3846 55.3027 26.255C55.3747 25.9585 55.4399 25.6602 55.5033 25.3636C56.4924 20.5741 55.841 16.7274 53.6468 15.4572C51.5332 14.2435 48.0859 15.5052 44.5991 18.5428C44.2529 18.8393 43.9169 19.153 43.5946 19.4667C43.3761 19.2565 43.1538 19.0502 42.9278 18.8479C39.2714 15.6012 35.6081 14.2349 33.4139 15.5137C31.3088 16.736 30.6814 20.3598 31.5659 24.8888C31.6551 25.3396 31.7511 25.7802 31.8625 26.231C31.3482 26.375 30.8425 26.5362 30.3677 26.7059C26.077 28.1921 23 30.5389 23 32.9662C23 35.4741 26.2776 37.9871 30.738 39.5145ZM41.6661 46.0611C40.3412 47.2756 38.8051 48.2372 37.1337 48.8981C36.2423 49.3233 35.2138 49.3644 34.2967 49.0027C33.0196 48.2639 32.4882 45.4268 33.2116 41.6093C33.3007 41.1602 33.3967 40.7093 33.5082 40.267C35.3081 40.6527 37.1234 40.9184 38.9645 41.0539C40.0267 42.5583 41.1863 43.9916 42.4358 45.3446C42.1787 45.5931 41.9215 45.8348 41.6644 46.0594L41.6661 46.0611ZM51.8709 30.9726C51.4958 30.2635 51.1072 29.5617 50.7052 28.8675C50.3109 28.1852 49.9012 27.5098 49.4761 26.843C50.7703 27.0041 52.008 27.2201 53.1651 27.4858C52.7948 28.6699 52.3628 29.8337 51.8709 30.9726ZM51.8863 34.9735C52.4005 36.1392 52.8514 37.3203 53.2439 38.534C51.9977 38.8151 50.7378 39.0328 49.4675 39.1768C50.334 37.8112 51.141 36.4089 51.8863 34.9735ZM50.9572 32.9748C49.8788 35.1934 48.6497 37.3354 47.2785 39.3859C46.0819 39.4751 44.8357 39.5145 43.574 39.5145C42.3124 39.5145 41.0919 39.4751 39.9108 39.4014C38.5161 37.3661 37.2778 35.2281 36.2063 33.0056H36.2029C37.2656 30.7861 38.496 28.6509 39.8833 26.6184C42.3393 26.4366 44.8053 26.4366 47.2613 26.6184C47.9436 27.6316 48.595 28.6669 49.2138 29.728C49.8309 30.7906 50.4124 31.8734 50.9572 32.9748ZM36.4258 28.8829C36.0315 29.5652 35.6458 30.2629 35.2841 30.9708C34.7988 29.8251 34.3697 28.6563 33.9984 27.4687C35.1555 27.2116 36.3846 27.0024 37.6617 26.8413C37.2383 27.5081 36.82 28.1904 36.4258 28.8829ZM35.2858 35.037C35.6561 35.7449 36.0332 36.4443 36.4343 37.1352C36.844 37.8346 37.2623 38.534 37.7046 39.2162C36.4521 39.0798 35.2077 38.8784 33.9761 38.6128C34.3293 37.4557 34.7715 36.2592 35.2858 35.037ZM43.6358 44.1069C42.7756 43.1767 41.9632 42.2035 41.2016 41.191C42.8055 41.2566 44.4114 41.2538 46.0151 41.1824C45.2764 42.2003 44.4821 43.1766 43.6358 44.1069ZM54.1388 46.5205C54.1011 47.0078 53.9639 47.4823 53.7357 47.9145C53.5075 48.3467 53.1931 48.7276 52.812 49.0336C51.5349 49.7724 48.811 48.809 45.8694 46.2857C45.5233 45.9845 45.1832 45.6764 44.8494 45.3617C46.0773 44.006 47.2102 42.5672 48.2401 41.0556C50.0844 40.9027 51.9156 40.6209 53.7205 40.2122C53.8011 40.5413 53.8731 40.8705 53.9382 41.1927C54.3306 42.9414 54.3986 44.7473 54.1388 46.5205ZM54.8364 27.911C55.2547 28.031 55.6558 28.1595 56.0415 28.2881C59.7854 29.5738 62.4133 31.4868 62.4133 32.9491C62.4133 34.5244 59.6088 36.5575 55.5993 37.8826C55.3747 37.9546 55.1501 38.0266 54.917 38.0917C54.3506 36.3384 53.6662 34.6254 52.8685 32.9645C53.6399 31.3257 54.2913 29.6372 54.8364 27.911ZM45.7305 19.8439C48.7218 17.2417 51.5092 16.2217 52.7794 16.952C54.137 17.7319 54.6599 20.881 53.8079 25.0191C53.7543 25.2889 53.6926 25.557 53.6228 25.8231C51.8408 25.4198 50.0341 25.1352 48.2144 24.9711C47.1712 23.4725 46.0275 22.0464 44.7911 20.7027C45.1048 20.4061 45.41 20.125 45.7305 19.8439ZM43.5878 21.9335C44.4311 22.8489 45.2265 23.8123 45.9654 24.8082C44.3725 24.7362 42.7773 24.7362 41.1844 24.8082C41.9712 23.7728 42.7838 22.8095 43.5878 21.9335ZM34.2658 17.0085C35.6166 16.2217 38.6131 17.3462 41.7707 20.1421C41.9712 20.3187 42.1718 20.5124 42.3809 20.7044C41.1369 22.0466 39.9851 23.4715 38.9337 24.9694C37.1176 25.1318 35.3139 25.4112 33.5339 25.8059C33.4293 25.3962 33.3419 24.9779 33.2527 24.5597C32.4968 20.6701 32.9956 17.7388 34.2658 17.0085ZM30.9317 28.3361C31.3894 28.175 31.8556 28.031 32.3219 27.8938C32.8682 29.6374 33.5255 31.3443 34.2898 33.0039C33.5184 34.6838 32.8516 36.4186 32.2979 38.186L32.2962 38.1877C31.9614 38.0922 31.6293 37.9876 31.3002 37.874C29.5895 37.3357 27.6438 36.4838 26.2382 35.3678C25.8369 35.0903 25.4961 34.7341 25.2366 34.321C24.977 33.9079 24.8039 33.4464 24.7279 32.9645C24.7279 31.4937 27.2667 29.6132 30.9317 28.3361Z" fill="white"/>
<path d="M80.7915 25.2812H85.4985C86.5662 25.2812 87.4679 25.444 88.2036 25.7695C88.9458 26.0951 89.509 26.5768 89.8931 27.2148C90.2837 27.8464 90.479 28.6243 90.479 29.5488C90.479 30.1999 90.3455 30.7956 90.0786 31.3359C89.8182 31.8698 89.4406 32.3255 88.9458 32.7031C88.4575 33.0742 87.8716 33.3509 87.188 33.5332L86.6606 33.7383H82.2368L82.2173 32.2051H85.5571C86.2342 32.2051 86.7974 32.0879 87.2466 31.8535C87.6958 31.6126 88.0343 31.2904 88.2622 30.8867C88.4901 30.4831 88.604 30.0371 88.604 29.5488C88.604 29.002 88.4966 28.5234 88.2817 28.1133C88.0669 27.7031 87.7284 27.3874 87.2661 27.166C86.8104 26.9382 86.2212 26.8242 85.4985 26.8242H82.6763V39.5H80.7915V25.2812ZM89.1021 39.5L85.645 33.0547L87.6079 33.0449L91.1138 39.3828V39.5H89.1021ZM97.2271 39.6953C96.4914 39.6953 95.8241 39.5716 95.2251 39.3242C94.6326 39.0703 94.1216 38.7155 93.6919 38.2598C93.2687 37.804 92.9432 37.2637 92.7153 36.6387C92.4875 36.0137 92.3735 35.3301 92.3735 34.5879V34.1777C92.3735 33.3184 92.5005 32.5534 92.7544 31.8828C93.0083 31.2057 93.3534 30.6328 93.7896 30.1641C94.2257 29.6953 94.7205 29.3405 95.2739 29.0996C95.8273 28.8587 96.4002 28.7383 96.9927 28.7383C97.7479 28.7383 98.3989 28.8685 98.9458 29.1289C99.4992 29.3893 99.9517 29.7539 100.303 30.2227C100.655 30.6849 100.915 31.2318 101.084 31.8633C101.254 32.4883 101.338 33.1719 101.338 33.9141V34.7246H93.4478V33.25H99.5317V33.1133C99.5057 32.6445 99.408 32.1888 99.2388 31.7461C99.076 31.3034 98.8156 30.9388 98.4575 30.6523C98.0994 30.3659 97.6112 30.2227 96.9927 30.2227C96.5825 30.2227 96.2049 30.3105 95.8599 30.4863C95.5148 30.6556 95.2186 30.9095 94.9712 31.248C94.7238 31.5866 94.5317 32 94.395 32.4883C94.2583 32.9766 94.1899 33.5397 94.1899 34.1777V34.5879C94.1899 35.0892 94.2583 35.5612 94.395 36.0039C94.5382 36.4401 94.7433 36.8242 95.0103 37.1562C95.2837 37.4883 95.6125 37.7487 95.9966 37.9375C96.3872 38.1263 96.8299 38.2207 97.3247 38.2207C97.9627 38.2207 98.5031 38.0905 98.9458 37.8301C99.3885 37.5697 99.7759 37.2214 100.108 36.7852L101.202 37.6543C100.974 37.9993 100.684 38.3281 100.333 38.6406C99.981 38.9531 99.548 39.207 99.0337 39.4023C98.5259 39.5977 97.9237 39.6953 97.2271 39.6953ZM109.678 37.6934V32.2539C109.678 31.8372 109.594 31.4759 109.424 31.1699C109.262 30.8574 109.014 30.6165 108.682 30.4473C108.35 30.278 107.94 30.1934 107.452 30.1934C106.996 30.1934 106.596 30.2715 106.25 30.4277C105.912 30.584 105.645 30.7891 105.45 31.043C105.261 31.2969 105.167 31.5703 105.167 31.8633H103.36C103.36 31.4857 103.458 31.1113 103.653 30.7402C103.848 30.3691 104.128 30.0339 104.493 29.7344C104.864 29.4284 105.306 29.1875 105.821 29.0117C106.342 28.8294 106.921 28.7383 107.559 28.7383C108.327 28.7383 109.004 28.8685 109.59 29.1289C110.183 29.3893 110.645 29.7832 110.977 30.3105C111.316 30.8314 111.485 31.4857 111.485 32.2734V37.1953C111.485 37.5469 111.514 37.9212 111.573 38.3184C111.638 38.7155 111.732 39.0573 111.856 39.3438V39.5H109.971C109.88 39.2917 109.808 39.015 109.756 38.6699C109.704 38.3184 109.678 37.9928 109.678 37.6934ZM109.991 33.0938L110.01 34.3633H108.184C107.67 34.3633 107.211 34.4056 106.807 34.4902C106.403 34.5684 106.065 34.6888 105.792 34.8516C105.518 35.0143 105.31 35.2194 105.167 35.4668C105.023 35.7077 104.952 35.9909 104.952 36.3164C104.952 36.6484 105.027 36.9512 105.176 37.2246C105.326 37.498 105.551 37.7161 105.85 37.8789C106.156 38.0352 106.53 38.1133 106.973 38.1133C107.527 38.1133 108.015 37.9961 108.438 37.7617C108.861 37.5273 109.196 37.2409 109.444 36.9023C109.698 36.5638 109.834 36.235 109.854 35.916L110.625 36.7852C110.58 37.0586 110.456 37.3613 110.254 37.6934C110.053 38.0254 109.782 38.3444 109.444 38.6504C109.112 38.9499 108.715 39.2005 108.252 39.4023C107.797 39.5977 107.282 39.6953 106.709 39.6953C105.993 39.6953 105.365 39.5553 104.825 39.2754C104.291 38.9954 103.874 38.6211 103.575 38.1523C103.282 37.6771 103.135 37.1465 103.135 36.5605C103.135 35.9941 103.246 35.4961 103.467 35.0664C103.689 34.6302 104.008 34.2689 104.424 33.9824C104.841 33.6895 105.342 33.4681 105.928 33.3184C106.514 33.1686 107.168 33.0938 107.891 33.0938H109.991ZM118.555 38.2109C118.985 38.2109 119.382 38.123 119.747 37.9473C120.111 37.7715 120.411 37.5306 120.645 37.2246C120.879 36.9121 121.013 36.5573 121.045 36.1602H122.764C122.732 36.7852 122.52 37.3678 122.129 37.9082C121.745 38.4421 121.241 38.875 120.616 39.207C119.991 39.5326 119.304 39.6953 118.555 39.6953C117.761 39.6953 117.068 39.5553 116.475 39.2754C115.889 38.9954 115.401 38.6113 115.01 38.123C114.626 37.6348 114.336 37.0749 114.141 36.4434C113.952 35.8053 113.858 35.1315 113.858 34.4219V34.0117C113.858 33.3021 113.952 32.6315 114.141 32C114.336 31.362 114.626 30.7988 115.01 30.3105C115.401 29.8223 115.889 29.4382 116.475 29.1582C117.068 28.8783 117.761 28.7383 118.555 28.7383C119.382 28.7383 120.105 28.9076 120.723 29.2461C121.342 29.5781 121.827 30.0339 122.178 30.6133C122.536 31.1862 122.732 31.8372 122.764 32.5664H121.045C121.013 32.1302 120.889 31.7363 120.674 31.3848C120.466 31.0332 120.18 30.7533 119.815 30.5449C119.457 30.3301 119.037 30.2227 118.555 30.2227C118.002 30.2227 117.536 30.3333 117.159 30.5547C116.788 30.7695 116.491 31.0625 116.27 31.4336C116.055 31.7982 115.899 32.2051 115.801 32.6543C115.71 33.097 115.665 33.5495 115.665 34.0117V34.4219C115.665 34.8841 115.71 35.3398 115.801 35.7891C115.892 36.2383 116.045 36.6452 116.26 37.0098C116.482 37.3743 116.778 37.6673 117.149 37.8887C117.527 38.1035 117.995 38.2109 118.555 38.2109ZM129.219 28.9336V30.3203H123.506V28.9336H129.219ZM125.44 26.3652H127.247V36.8828C127.247 37.2409 127.302 37.5111 127.413 37.6934C127.523 37.8757 127.667 37.9961 127.842 38.0547C128.018 38.1133 128.207 38.1426 128.409 38.1426C128.558 38.1426 128.715 38.1296 128.877 38.1035C129.047 38.071 129.174 38.0449 129.258 38.0254L129.268 39.5C129.125 39.5456 128.936 39.5879 128.702 39.627C128.474 39.6725 128.197 39.6953 127.872 39.6953C127.429 39.6953 127.022 39.6074 126.651 39.4316C126.28 39.2559 125.984 38.9629 125.762 38.5527C125.547 38.1361 125.44 37.5762 125.44 36.873V26.3652Z" fill="white"/>
</svg>
