<svg width="42" height="36" viewBox="0 0 42 36" fill="none" xmlns="http://www.w3.org/2000/svg">
<path d="M20.5706 21.6774C22.6032 21.6774 24.251 20.0297 24.251 17.997C24.251 15.9644 22.6032 14.3166 20.5706 14.3166C18.5379 14.3166 16.8901 15.9644 16.8901 17.997C16.8901 20.0297 18.5379 21.6774 20.5706 21.6774Z" fill="white"/>
<path d="M7.73798 24.5145C8.09968 24.6345 8.46138 24.7562 8.83165 24.8608C8.71165 25.3425 8.60709 25.8173 8.50938 26.3076C7.66598 30.768 8.32424 34.3027 10.4293 35.5164C12.5995 36.7694 16.2474 35.4838 19.7992 32.3742C20.0803 32.1256 20.3615 31.8685 20.6426 31.5942C20.9957 31.9405 21.366 32.2696 21.7346 32.5902C25.1733 35.5472 28.5726 36.7437 30.6708 35.5318C32.841 34.2787 33.5472 30.4783 32.6318 25.8499C32.5576 25.4868 32.4771 25.125 32.3901 24.7648C32.6473 24.6928 32.8958 24.6122 33.1461 24.5316C37.7831 22.9974 41.1412 20.5135 41.1412 17.9662C41.1412 15.532 37.9751 13.1698 33.6038 11.6664C33.1723 11.5229 32.7386 11.3846 32.3027 11.255C32.3747 10.9585 32.4399 10.6602 32.5033 10.3636C33.4924 5.57412 32.841 1.72742 30.6468 0.45718C28.5332 -0.756486 25.0859 0.505178 21.5991 3.54277C21.2529 3.83933 20.9169 4.15303 20.5946 4.46673C20.3761 4.25646 20.1538 4.05015 19.9278 3.8479C16.2714 0.601174 12.6081 -0.765057 10.4139 0.513749C8.30881 1.73599 7.68141 5.35984 8.56595 9.8888C8.65508 10.3396 8.75108 10.7802 8.8625 11.231C8.34824 11.375 7.84255 11.5362 7.36771 11.7059C3.07702 13.1921 0 15.5389 0 17.9662C0 20.4741 3.27758 22.9871 7.73798 24.5145ZM18.6661 31.0611C17.3412 32.2756 15.8051 33.2372 14.1337 33.8981C13.2423 34.3233 12.2138 34.3644 11.2967 34.0027C10.0196 33.2639 9.48819 30.4268 10.2116 26.6093C10.3007 26.1602 10.3967 25.7093 10.5082 25.267C12.3081 25.6527 14.1234 25.9184 15.9645 26.0539C17.0267 27.5583 18.1863 28.9916 19.4358 30.3446C19.1787 30.5931 18.9215 30.8348 18.6644 31.0594L18.6661 31.0611ZM28.8709 15.9726C28.4958 15.2635 28.1072 14.5617 27.7052 13.8675C27.3109 13.1852 26.9012 12.5098 26.4761 11.843C27.7703 12.0041 29.008 12.2201 30.1651 12.4858C29.7948 13.6699 29.3628 14.8337 28.8709 15.9726ZM28.8863 19.9735C29.4005 21.1392 29.8514 22.3203 30.2439 23.534C28.9977 23.8151 27.7378 24.0328 26.4675 24.1768C27.334 22.8112 28.141 21.4089 28.8863 19.9735ZM27.9572 17.9748C26.8788 20.1934 25.6497 22.3354 24.2785 24.3859C23.0819 24.4751 21.8357 24.5145 20.574 24.5145C19.3124 24.5145 18.0919 24.4751 16.9108 24.4014C15.5161 22.3661 14.2778 20.2281 13.2063 18.0056H13.2029C14.2656 15.7861 15.496 13.6509 16.8833 11.6184C19.3393 11.4366 21.8053 11.4366 24.2613 11.6184C24.9436 12.6316 25.595 13.6669 26.2138 14.728C26.8309 15.7906 27.4124 16.8734 27.9572 17.9748ZM13.4258 13.8829C13.0315 14.5652 12.6458 15.2629 12.2841 15.9708C11.7988 14.8251 11.3697 13.6563 10.9984 12.4687C12.1555 12.2116 13.3846 12.0024 14.6617 11.8413C14.2383 12.5081 13.82 13.1904 13.4258 13.8829ZM12.2858 20.037C12.6561 20.7449 13.0332 21.4443 13.4343 22.1352C13.844 22.8346 14.2623 23.534 14.7046 24.2162C13.4521 24.0798 12.2077 23.8784 10.9761 23.6128C11.3293 22.4557 11.7715 21.2592 12.2858 20.037ZM20.6358 29.1069C19.7756 28.1767 18.9632 27.2035 18.2016 26.191C19.8055 26.2566 21.4114 26.2538 23.0151 26.1824C22.2764 27.2003 21.4821 28.1766 20.6358 29.1069ZM31.1388 31.5205C31.1011 32.0078 30.9639 32.4823 30.7357 32.9145C30.5075 33.3467 30.1931 33.7276 29.812 34.0336C28.5349 34.7724 25.811 33.809 22.8694 31.2857C22.5233 30.9845 22.1832 30.6764 21.8494 30.3617C23.0773 29.006 24.2102 27.5672 25.2401 26.0556C27.0844 25.9027 28.9156 25.6209 30.7205 25.2122C30.8011 25.5413 30.8731 25.8705 30.9382 26.1927C31.3306 27.9414 31.3986 29.7473 31.1388 31.5205ZM31.8364 12.911C32.2547 13.031 32.6558 13.1595 33.0415 13.2881C36.7854 14.5738 39.4133 16.4868 39.4133 17.9491C39.4133 19.5244 36.6088 21.5575 32.5993 22.8826C32.3747 22.9546 32.1501 23.0266 31.917 23.0917C31.3506 21.3384 30.6662 19.6254 29.8685 17.9645C30.6399 16.3257 31.2913 14.6372 31.8364 12.911ZM22.7305 4.84386C25.7218 2.24168 28.5092 1.22172 29.7794 1.95198C31.137 2.73195 31.6599 5.88096 30.8079 10.0191C30.7543 10.2889 30.6926 10.557 30.6228 10.8231C28.8408 10.4198 27.0341 10.1352 25.2144 9.97109C24.1712 8.47246 23.0275 7.04638 21.7911 5.70269C22.1048 5.40613 22.41 5.12499 22.7305 4.84386ZM20.5878 6.93349C21.4311 7.84889 22.2265 8.81228 22.9654 9.80824C21.3725 9.73624 19.7773 9.73624 18.1844 9.80824C18.9712 8.77285 19.7838 7.80946 20.5878 6.93349ZM11.2658 2.00855C12.6166 1.22172 15.6131 2.34625 18.7707 5.14214C18.9712 5.3187 19.1718 5.51241 19.3809 5.7044C18.1369 7.0466 16.9851 8.47152 15.9337 9.96937C14.1176 10.1318 12.3139 10.4112 10.5339 10.8059C10.4293 10.3962 10.3419 9.97794 10.2527 9.55968C9.49677 5.67012 9.9956 2.7388 11.2658 2.00855ZM7.93168 13.3361C8.38938 13.175 8.85565 13.031 9.32192 12.8938C9.86822 14.6374 10.5255 16.3443 11.2898 18.0039C10.5184 19.6838 9.85161 21.4186 9.29792 23.186L9.2962 23.1877C8.96143 23.0922 8.62932 22.9876 8.30024 22.874C6.58945 22.3357 4.64382 21.4838 3.23816 20.3678C2.83689 20.0903 2.49615 19.7341 2.23655 19.321C1.97696 18.9079 1.80393 18.4464 1.72793 17.9645C1.72793 16.4937 4.26669 14.6132 7.93168 13.3361Z" fill="white"/>
</svg>
