<svg width="44" height="26" viewBox="0 0 44 26" fill="none" xmlns="http://www.w3.org/2000/svg">
<path d="M36.3 7.61559C34.6501 7.05706 33.1938 6.05279 32.098 4.71795C30.8903 3.23072 29.3525 2.03469 27.6023 1.22138C25.8521 0.408069 23.9358 -0.000983513 22 0.0255157C19.396 -0.155748 16.8181 0.633684 14.7796 2.2366C12.7411 3.83952 11.3917 6.1383 11 8.67517C11.7715 7.40636 12.9326 6.41084 14.3163 5.83185C15.6999 5.25287 17.2348 5.12029 18.7 5.45318C20.3471 6.02796 21.8011 7.03807 22.902 8.37243C24.1163 9.84779 25.657 11.0315 27.4069 11.8334C29.1567 12.6353 31.0696 13.0343 33 13C35.604 13.1813 38.1819 12.3918 40.2204 10.7889C42.2589 9.186 43.6083 6.88721 44 4.35034C43.2425 5.63433 42.0851 6.64489 40.6986 7.23284C39.3121 7.8208 37.77 7.95498 36.3 7.61559ZM7.7 18.3844C9.34988 18.9429 10.8062 19.9472 11.902 21.282C13.1097 22.7693 14.6475 23.9653 16.3977 24.7786C18.1479 25.5919 20.0642 26.001 22 25.9745C24.604 26.1557 27.1819 25.3663 29.2204 23.7634C31.2589 22.1605 32.6083 19.8617 33 17.3248C32.2285 18.5936 31.0674 19.5892 29.6837 20.1681C28.3001 20.7471 26.7652 20.8797 25.3 20.5468C23.6529 19.972 22.1989 18.9619 21.098 17.6276C19.8804 16.1559 18.3391 14.9748 16.59 14.1732C14.8409 13.3717 12.9296 12.9705 11 13C8.39601 12.8187 5.81808 13.6082 3.77961 15.2111C1.74114 16.814 0.391693 19.1128 0 21.6497C0.757475 20.3657 1.9149 19.3551 3.30139 18.7672C4.68789 18.1792 6.22998 18.045 7.7 18.3844Z" fill="white"/>
</svg>
