<svg width="213" height="66" viewBox="0 0 213 66" fill="none" xmlns="http://www.w3.org/2000/svg">
<rect x="0.5" y="0.5" width="212" height="65" rx="16.5" stroke="white"/>
<path d="M59.3 27.6156C57.6501 27.0571 56.1938 26.0528 55.098 24.718C53.8903 23.2307 52.3525 22.0347 50.6023 21.2214C48.8521 20.4081 46.9358 19.999 45 20.0255C42.396 19.8443 39.8181 20.6337 37.7796 22.2366C35.7411 23.8395 34.3917 26.1383 34 28.6752C34.7715 27.4064 35.9326 26.4108 37.3163 25.8319C38.6999 25.2529 40.2348 25.1203 41.7 25.4532C43.3471 26.028 44.8011 27.0381 45.902 28.3724C47.1163 29.8478 48.657 31.0315 50.4069 31.8334C52.1567 32.6353 54.0696 33.0343 56 33C58.604 33.1813 61.1819 32.3918 63.2204 30.7889C65.2589 29.186 66.6083 26.8872 67 24.3503C66.2425 25.6343 65.0851 26.6449 63.6986 27.2328C62.3121 27.8208 60.77 27.955 59.3 27.6156ZM30.7 38.3844C32.3499 38.9429 33.8062 39.9472 34.902 41.282C36.1097 42.7693 37.6475 43.9653 39.3977 44.7786C41.1479 45.5919 43.0642 46.001 45 45.9745C47.604 46.1557 50.1819 45.3663 52.2204 43.7634C54.2589 42.1605 55.6083 39.8617 56 37.3248C55.2285 38.5936 54.0674 39.5892 52.6837 40.1681C51.3001 40.7471 49.7652 40.8797 48.3 40.5468C46.6529 39.972 45.1989 38.9619 44.098 37.6276C42.8804 36.1559 41.3391 34.9748 39.59 34.1732C37.8409 33.3717 35.9296 32.9705 34 33C31.396 32.8187 28.8181 33.6082 26.7796 35.2111C24.7411 36.814 23.3917 39.1128 23 41.6497C23.7575 40.3657 24.9149 39.3551 26.3014 38.7672C27.6879 38.1792 29.23 38.045 30.7 38.3844Z" fill="white"/>
<path d="M88.9043 25.2812V39.5H87.0488V25.2812H88.9043ZM93.4746 25.2812V26.8242H82.4883V25.2812H93.4746ZM100.428 37.6934V32.2539C100.428 31.8372 100.343 31.4759 100.174 31.1699C100.011 30.8574 99.7637 30.6165 99.4316 30.4473C99.0996 30.278 98.6895 30.1934 98.2012 30.1934C97.7454 30.1934 97.3451 30.2715 97 30.4277C96.6615 30.584 96.3945 30.7891 96.1992 31.043C96.0104 31.2969 95.916 31.5703 95.916 31.8633H94.1094C94.1094 31.4857 94.207 31.1113 94.4023 30.7402C94.5977 30.3691 94.8776 30.0339 95.2422 29.7344C95.6133 29.4284 96.056 29.1875 96.5703 29.0117C97.0911 28.8294 97.6706 28.7383 98.3086 28.7383C99.0768 28.7383 99.7539 28.8685 100.34 29.1289C100.932 29.3893 101.395 29.7832 101.727 30.3105C102.065 30.8314 102.234 31.4857 102.234 32.2734V37.1953C102.234 37.5469 102.264 37.9212 102.322 38.3184C102.387 38.7155 102.482 39.0573 102.605 39.3438V39.5H100.721C100.63 39.2917 100.558 39.015 100.506 38.6699C100.454 38.3184 100.428 37.9928 100.428 37.6934ZM100.74 33.0938L100.76 34.3633H98.9336C98.4193 34.3633 97.9603 34.4056 97.5566 34.4902C97.153 34.5684 96.8145 34.6888 96.541 34.8516C96.2676 35.0143 96.0592 35.2194 95.916 35.4668C95.7728 35.7077 95.7012 35.9909 95.7012 36.3164C95.7012 36.6484 95.776 36.9512 95.9258 37.2246C96.0755 37.498 96.3001 37.7161 96.5996 37.8789C96.9056 38.0352 97.2799 38.1133 97.7227 38.1133C98.276 38.1133 98.7643 37.9961 99.1875 37.7617C99.6107 37.5273 99.946 37.2409 100.193 36.9023C100.447 36.5638 100.584 36.235 100.604 35.916L101.375 36.7852C101.329 37.0586 101.206 37.3613 101.004 37.6934C100.802 38.0254 100.532 38.3444 100.193 38.6504C99.8613 38.9499 99.4642 39.2005 99.002 39.4023C98.5462 39.5977 98.0319 39.6953 97.459 39.6953C96.7428 39.6953 96.1146 39.5553 95.5742 39.2754C95.0404 38.9954 94.6237 38.6211 94.3242 38.1523C94.0312 37.6771 93.8848 37.1465 93.8848 36.5605C93.8848 35.9941 93.9954 35.4961 94.2168 35.0664C94.4382 34.6302 94.7572 34.2689 95.1738 33.9824C95.5905 33.6895 96.0918 33.4681 96.6777 33.3184C97.2637 33.1686 97.918 33.0938 98.6406 33.0938H100.74ZM107.039 28.9336V39.5H105.223V28.9336H107.039ZM105.086 26.1309C105.086 25.8379 105.174 25.5905 105.35 25.3887C105.532 25.1868 105.799 25.0859 106.15 25.0859C106.495 25.0859 106.759 25.1868 106.941 25.3887C107.13 25.5905 107.225 25.8379 107.225 26.1309C107.225 26.4108 107.13 26.6517 106.941 26.8535C106.759 27.0488 106.495 27.1465 106.15 27.1465C105.799 27.1465 105.532 27.0488 105.35 26.8535C105.174 26.6517 105.086 26.4108 105.086 26.1309ZM111.902 24.5V39.5H110.086V24.5H111.902ZM117.479 37.625L120.193 28.9336H121.385L121.15 30.6621L118.387 39.5H117.225L117.479 37.625ZM115.652 28.9336L117.967 37.7227L118.133 39.5H116.912L113.846 28.9336H115.652ZM123.982 37.6543L126.189 28.9336H127.986L124.92 39.5H123.709L123.982 37.6543ZM121.648 28.9336L124.305 37.4785L124.607 39.5H123.455L120.613 30.6426L120.379 28.9336H121.648ZM131.805 28.9336V39.5H129.988V28.9336H131.805ZM129.852 26.1309C129.852 25.8379 129.939 25.5905 130.115 25.3887C130.298 25.1868 130.564 25.0859 130.916 25.0859C131.261 25.0859 131.525 25.1868 131.707 25.3887C131.896 25.5905 131.99 25.8379 131.99 26.1309C131.99 26.4108 131.896 26.6517 131.707 26.8535C131.525 27.0488 131.261 27.1465 130.916 27.1465C130.564 27.1465 130.298 27.0488 130.115 26.8535C129.939 26.6517 129.852 26.4108 129.852 26.1309ZM136.512 31.1895V39.5H134.705V28.9336H136.414L136.512 31.1895ZM136.082 33.8164L135.33 33.7871C135.337 33.0645 135.444 32.3971 135.652 31.7852C135.861 31.1667 136.154 30.6296 136.531 30.1738C136.909 29.7181 137.358 29.3665 137.879 29.1191C138.406 28.8652 138.989 28.7383 139.627 28.7383C140.148 28.7383 140.617 28.8099 141.033 28.9531C141.45 29.0898 141.805 29.3112 142.098 29.6172C142.397 29.9232 142.625 30.3203 142.781 30.8086C142.938 31.2904 143.016 31.8796 143.016 32.5762V39.5H141.199V32.5566C141.199 32.0033 141.118 31.5605 140.955 31.2285C140.792 30.89 140.555 30.6458 140.242 30.4961C139.93 30.3398 139.546 30.2617 139.09 30.2617C138.641 30.2617 138.23 30.3561 137.859 30.5449C137.495 30.7337 137.179 30.9941 136.912 31.3262C136.652 31.6582 136.447 32.0391 136.297 32.4688C136.154 32.8919 136.082 33.3411 136.082 33.8164ZM152.42 37.4492V24.5H154.236V39.5H152.576L152.42 37.4492ZM145.311 34.334V34.1289C145.311 33.3216 145.408 32.5892 145.604 31.9316C145.805 31.2676 146.089 30.6979 146.453 30.2227C146.824 29.7474 147.264 29.3828 147.771 29.1289C148.286 28.8685 148.859 28.7383 149.49 28.7383C150.154 28.7383 150.734 28.8555 151.229 29.0898C151.73 29.3177 152.153 29.653 152.498 30.0957C152.85 30.5319 153.126 31.0592 153.328 31.6777C153.53 32.2962 153.67 32.9961 153.748 33.7773V34.6758C153.676 35.4505 153.536 36.1471 153.328 36.7656C153.126 37.3841 152.85 37.9115 152.498 38.3477C152.153 38.7839 151.73 39.1191 151.229 39.3535C150.727 39.5814 150.141 39.6953 149.471 39.6953C148.852 39.6953 148.286 39.5618 147.771 39.2949C147.264 39.028 146.824 38.6536 146.453 38.1719C146.089 37.6901 145.805 37.1237 145.604 36.4727C145.408 35.8151 145.311 35.1022 145.311 34.334ZM147.127 34.1289V34.334C147.127 34.8613 147.179 35.3561 147.283 35.8184C147.394 36.2806 147.563 36.6875 147.791 37.0391C148.019 37.3906 148.309 37.6673 148.66 37.8691C149.012 38.0645 149.432 38.1621 149.92 38.1621C150.519 38.1621 151.01 38.0352 151.395 37.7812C151.785 37.5273 152.098 37.1921 152.332 36.7754C152.566 36.3587 152.749 35.9062 152.879 35.418V33.0645C152.801 32.7064 152.687 32.3613 152.537 32.0293C152.394 31.6908 152.205 31.3913 151.971 31.1309C151.743 30.8639 151.46 30.6523 151.121 30.4961C150.789 30.3398 150.395 30.2617 149.939 30.2617C149.445 30.2617 149.018 30.3659 148.66 30.5742C148.309 30.776 148.019 31.056 147.791 31.4141C147.563 31.7656 147.394 32.1758 147.283 32.6445C147.179 33.1068 147.127 33.6016 147.127 34.1289ZM165.906 34.9785H167.781C167.684 35.877 167.426 36.681 167.01 37.3906C166.593 38.1003 166.004 38.6634 165.242 39.0801C164.48 39.4902 163.53 39.6953 162.391 39.6953C161.557 39.6953 160.799 39.5391 160.115 39.2266C159.438 38.9141 158.855 38.4714 158.367 37.8984C157.879 37.319 157.501 36.6257 157.234 35.8184C156.974 35.0046 156.844 34.0996 156.844 33.1035V31.6875C156.844 30.6914 156.974 29.7897 157.234 28.9824C157.501 28.1686 157.882 27.472 158.377 26.8926C158.878 26.3132 159.48 25.8672 160.184 25.5547C160.887 25.2422 161.678 25.0859 162.557 25.0859C163.631 25.0859 164.539 25.2878 165.281 25.6914C166.023 26.0951 166.6 26.6549 167.01 27.3711C167.426 28.0807 167.684 28.9043 167.781 29.8418H165.906C165.815 29.1777 165.646 28.6081 165.398 28.1328C165.151 27.651 164.799 27.2799 164.344 27.0195C163.888 26.7591 163.292 26.6289 162.557 26.6289C161.925 26.6289 161.368 26.7493 160.887 26.9902C160.411 27.2311 160.011 27.5729 159.686 28.0156C159.367 28.4583 159.126 28.9889 158.963 29.6074C158.8 30.2259 158.719 30.9128 158.719 31.668V33.1035C158.719 33.8001 158.79 34.4544 158.934 35.0664C159.083 35.6784 159.308 36.2155 159.607 36.6777C159.907 37.14 160.288 37.5046 160.75 37.7715C161.212 38.0319 161.759 38.1621 162.391 38.1621C163.191 38.1621 163.829 38.0352 164.305 37.7812C164.78 37.5273 165.138 37.1628 165.379 36.6875C165.626 36.2122 165.802 35.6426 165.906 34.9785ZM177.928 35.9062C177.928 35.5742 177.876 35.2812 177.771 35.0273C177.674 34.7669 177.498 34.5326 177.244 34.3242C176.997 34.1159 176.652 33.9173 176.209 33.7285C175.773 33.5397 175.219 33.3477 174.549 33.1523C173.846 32.944 173.211 32.7129 172.645 32.459C172.078 32.1986 171.593 31.9023 171.189 31.5703C170.786 31.2383 170.477 30.8574 170.262 30.4277C170.047 29.998 169.939 29.5065 169.939 28.9531C169.939 28.3997 170.053 27.8887 170.281 27.4199C170.509 26.9512 170.835 26.5443 171.258 26.1992C171.688 25.8477 172.199 25.5742 172.791 25.3789C173.383 25.1836 174.044 25.0859 174.773 25.0859C175.841 25.0859 176.746 25.291 177.488 25.7012C178.237 26.1048 178.807 26.6354 179.197 27.293C179.588 27.944 179.783 28.6406 179.783 29.3828H177.908C177.908 28.849 177.794 28.377 177.566 27.9668C177.339 27.5501 176.993 27.2246 176.531 26.9902C176.069 26.7493 175.483 26.6289 174.773 26.6289C174.103 26.6289 173.549 26.7298 173.113 26.9316C172.677 27.1335 172.352 27.4069 172.137 27.752C171.928 28.097 171.824 28.4909 171.824 28.9336C171.824 29.2331 171.886 29.5065 172.01 29.7539C172.14 29.9948 172.339 30.2194 172.605 30.4277C172.879 30.6361 173.224 30.8281 173.641 31.0039C174.064 31.1797 174.568 31.349 175.154 31.5117C175.962 31.7396 176.658 31.9935 177.244 32.2734C177.83 32.5534 178.312 32.8691 178.689 33.2207C179.074 33.5658 179.357 33.9596 179.539 34.4023C179.728 34.8385 179.822 35.3333 179.822 35.8867C179.822 36.4661 179.705 36.9902 179.471 37.459C179.236 37.9277 178.901 38.3281 178.465 38.6602C178.029 38.9922 177.505 39.2493 176.893 39.4316C176.287 39.6074 175.61 39.6953 174.861 39.6953C174.204 39.6953 173.556 39.6042 172.918 39.4219C172.286 39.2396 171.71 38.9661 171.189 38.6016C170.675 38.237 170.262 37.7878 169.949 37.2539C169.643 36.7135 169.49 36.0885 169.49 35.3789H171.365C171.365 35.8672 171.46 36.2871 171.648 36.6387C171.837 36.9837 172.094 37.2702 172.42 37.498C172.752 37.7259 173.126 37.8952 173.543 38.0059C173.966 38.11 174.406 38.1621 174.861 38.1621C175.519 38.1621 176.076 38.071 176.531 37.8887C176.987 37.7064 177.332 37.446 177.566 37.1074C177.807 36.7689 177.928 36.3685 177.928 35.9062ZM189.803 35.9062C189.803 35.5742 189.751 35.2812 189.646 35.0273C189.549 34.7669 189.373 34.5326 189.119 34.3242C188.872 34.1159 188.527 33.9173 188.084 33.7285C187.648 33.5397 187.094 33.3477 186.424 33.1523C185.721 32.944 185.086 32.7129 184.52 32.459C183.953 32.1986 183.468 31.9023 183.064 31.5703C182.661 31.2383 182.352 30.8574 182.137 30.4277C181.922 29.998 181.814 29.5065 181.814 28.9531C181.814 28.3997 181.928 27.8887 182.156 27.4199C182.384 26.9512 182.71 26.5443 183.133 26.1992C183.562 25.8477 184.074 25.5742 184.666 25.3789C185.258 25.1836 185.919 25.0859 186.648 25.0859C187.716 25.0859 188.621 25.291 189.363 25.7012C190.112 26.1048 190.682 26.6354 191.072 27.293C191.463 27.944 191.658 28.6406 191.658 29.3828H189.783C189.783 28.849 189.669 28.377 189.441 27.9668C189.214 27.5501 188.868 27.2246 188.406 26.9902C187.944 26.7493 187.358 26.6289 186.648 26.6289C185.978 26.6289 185.424 26.7298 184.988 26.9316C184.552 27.1335 184.227 27.4069 184.012 27.752C183.803 28.097 183.699 28.4909 183.699 28.9336C183.699 29.2331 183.761 29.5065 183.885 29.7539C184.015 29.9948 184.214 30.2194 184.48 30.4277C184.754 30.6361 185.099 30.8281 185.516 31.0039C185.939 31.1797 186.443 31.349 187.029 31.5117C187.837 31.7396 188.533 31.9935 189.119 32.2734C189.705 32.5534 190.187 32.8691 190.564 33.2207C190.949 33.5658 191.232 33.9596 191.414 34.4023C191.603 34.8385 191.697 35.3333 191.697 35.8867C191.697 36.4661 191.58 36.9902 191.346 37.459C191.111 37.9277 190.776 38.3281 190.34 38.6602C189.904 38.9922 189.38 39.2493 188.768 39.4316C188.162 39.6074 187.485 39.6953 186.736 39.6953C186.079 39.6953 185.431 39.6042 184.793 39.4219C184.161 39.2396 183.585 38.9661 183.064 38.6016C182.55 38.237 182.137 37.7878 181.824 37.2539C181.518 36.7135 181.365 36.0885 181.365 35.3789H183.24C183.24 35.8672 183.335 36.2871 183.523 36.6387C183.712 36.9837 183.969 37.2702 184.295 37.498C184.627 37.7259 185.001 37.8952 185.418 38.0059C185.841 38.11 186.281 38.1621 186.736 38.1621C187.394 38.1621 187.951 38.071 188.406 37.8887C188.862 37.7064 189.207 37.446 189.441 37.1074C189.682 36.7689 189.803 36.3685 189.803 35.9062Z" fill="white"/>
</svg>
