<svg width="182" height="66" viewBox="0 0 182 66" fill="none" xmlns="http://www.w3.org/2000/svg">
<rect x="0.5" y="0.5" width="181" height="65" rx="16.5" stroke="white"/>
<path d="M17 33V51H53V15H17V33ZM46.0102 31.56C46.8725 31.7601 47.6561 32.2111 48.2624 32.856C48.5961 33.2035 48.8863 33.5903 49.1264 34.008C49.1264 34.0541 47.5712 35.1053 46.6237 35.6928C46.5891 35.7158 46.4509 35.5661 46.2982 35.3386C46.1253 35.0401 45.8795 34.7903 45.5839 34.6125C45.2882 34.4348 44.9524 34.3348 44.6077 34.3219C43.5162 34.247 42.8134 34.8202 42.8192 35.7619C42.8102 35.9964 42.8639 36.229 42.9747 36.4358C43.2138 36.9341 43.6602 37.2307 45.0598 37.8355C47.6374 38.9443 48.7405 39.6758 49.4259 40.7155C50.192 41.8675 50.3619 43.728 49.8435 45.1046C49.2675 46.6022 47.8563 47.6189 45.8605 47.9558C44.9489 48.0602 44.0279 48.0506 43.1187 47.927C41.7312 47.7019 40.4512 47.0413 39.464 46.0406C39.1328 45.6749 38.4877 44.7216 38.528 44.6525C38.6331 44.5744 38.7438 44.5042 38.8592 44.4422L40.184 43.6819L41.2179 43.0829L41.4339 43.4026C41.7985 43.924 42.2624 44.3683 42.799 44.7101C43.951 45.3149 45.5235 45.2314 46.3011 44.5315C46.5622 44.2751 46.7251 43.9352 46.7614 43.571C46.7977 43.2069 46.7051 42.8415 46.4998 42.5386C46.2118 42.1382 45.6358 41.8013 44.0259 41.0986C42.1683 40.2979 41.3677 39.8026 40.6362 39.0134C40.1795 38.4927 39.8423 37.8783 39.6483 37.2134C39.5036 36.4538 39.4822 35.6759 39.585 34.9094C39.968 33.1152 41.313 31.8624 43.2771 31.4909C44.1867 31.3783 45.1081 31.4036 46.0102 31.5658V31.56ZM37.5603 33.0691V34.5437H32.8861V47.8579H29.5712V34.5408H24.8854V33.1008C24.8729 32.6051 24.8863 32.109 24.9258 31.6147C24.943 31.5917 27.8058 31.5802 31.2618 31.5859H37.543L37.5603 33.0691Z" fill="white"/>
<path d="M73.9043 25.2812V39.5H72.0488V25.2812H73.9043ZM78.4746 25.2812V26.8242H67.4883V25.2812H78.4746ZM82.5762 38.4062L85.5156 28.9336H87.4492L83.2109 41.1309C83.1133 41.3913 82.9831 41.6712 82.8203 41.9707C82.6641 42.2767 82.4622 42.5664 82.2148 42.8398C81.9674 43.1133 81.668 43.3346 81.3164 43.5039C80.9714 43.6797 80.5579 43.7676 80.0762 43.7676C79.9329 43.7676 79.7507 43.748 79.5293 43.709C79.3079 43.6699 79.1517 43.6374 79.0605 43.6113L79.0508 42.1465C79.1029 42.153 79.1842 42.1595 79.2949 42.166C79.4121 42.179 79.4935 42.1855 79.5391 42.1855C79.9492 42.1855 80.2975 42.1302 80.584 42.0195C80.8704 41.9154 81.1113 41.7363 81.3066 41.4824C81.5085 41.235 81.681 40.8932 81.8242 40.457L82.5762 38.4062ZM80.418 28.9336L83.1621 37.1367L83.6309 39.041L82.332 39.7051L78.4453 28.9336H80.418ZM90.8867 30.9648V43.5625H89.0703V28.9336H90.7305L90.8867 30.9648ZM98.0059 34.1289V34.334C98.0059 35.1022 97.9147 35.8151 97.7324 36.4727C97.5501 37.1237 97.2832 37.6901 96.9316 38.1719C96.5866 38.6536 96.1602 39.028 95.6523 39.2949C95.1445 39.5618 94.5618 39.6953 93.9043 39.6953C93.2337 39.6953 92.6413 39.5846 92.127 39.3633C91.6126 39.1419 91.1764 38.8197 90.8184 38.3965C90.4603 37.9733 90.1738 37.4655 89.959 36.873C89.7507 36.2806 89.6074 35.6133 89.5293 34.8711V33.7773C89.6074 32.9961 89.7539 32.2962 89.9688 31.6777C90.1836 31.0592 90.4668 30.5319 90.8184 30.0957C91.1764 29.653 91.6094 29.3177 92.1172 29.0898C92.625 28.8555 93.2109 28.7383 93.875 28.7383C94.5391 28.7383 95.1283 28.8685 95.6426 29.1289C96.1569 29.3828 96.5898 29.7474 96.9414 30.2227C97.293 30.6979 97.5566 31.2676 97.7324 31.9316C97.9147 32.5892 98.0059 33.3216 98.0059 34.1289ZM96.1895 34.334V34.1289C96.1895 33.6016 96.1341 33.1068 96.0234 32.6445C95.9128 32.1758 95.7402 31.7656 95.5059 31.4141C95.278 31.056 94.985 30.776 94.627 30.5742C94.2689 30.3659 93.8424 30.2617 93.3477 30.2617C92.8919 30.2617 92.4948 30.3398 92.1562 30.4961C91.8242 30.6523 91.541 30.8639 91.3066 31.1309C91.0723 31.3913 90.8802 31.6908 90.7305 32.0293C90.5872 32.3613 90.4798 32.7064 90.4082 33.0645V35.5938C90.5384 36.0495 90.7207 36.4792 90.9551 36.8828C91.1895 37.2799 91.502 37.6022 91.8926 37.8496C92.2832 38.0905 92.7747 38.2109 93.3672 38.2109C93.8555 38.2109 94.2754 38.11 94.627 37.9082C94.985 37.6999 95.278 37.4167 95.5059 37.0586C95.7402 36.7005 95.9128 36.2904 96.0234 35.8281C96.1341 35.3594 96.1895 34.8613 96.1895 34.334ZM104.695 39.6953C103.96 39.6953 103.292 39.5716 102.693 39.3242C102.101 39.0703 101.59 38.7155 101.16 38.2598C100.737 37.804 100.411 37.2637 100.184 36.6387C99.9557 36.0137 99.8418 35.3301 99.8418 34.5879V34.1777C99.8418 33.3184 99.9688 32.5534 100.223 31.8828C100.477 31.2057 100.822 30.6328 101.258 30.1641C101.694 29.6953 102.189 29.3405 102.742 29.0996C103.296 28.8587 103.868 28.7383 104.461 28.7383C105.216 28.7383 105.867 28.8685 106.414 29.1289C106.967 29.3893 107.42 29.7539 107.771 30.2227C108.123 30.6849 108.383 31.2318 108.553 31.8633C108.722 32.4883 108.807 33.1719 108.807 33.9141V34.7246H100.916V33.25H107V33.1133C106.974 32.6445 106.876 32.1888 106.707 31.7461C106.544 31.3034 106.284 30.9388 105.926 30.6523C105.568 30.3659 105.079 30.2227 104.461 30.2227C104.051 30.2227 103.673 30.3105 103.328 30.4863C102.983 30.6556 102.687 30.9095 102.439 31.248C102.192 31.5866 102 32 101.863 32.4883C101.727 32.9766 101.658 33.5397 101.658 34.1777V34.5879C101.658 35.0892 101.727 35.5612 101.863 36.0039C102.007 36.4401 102.212 36.8242 102.479 37.1562C102.752 37.4883 103.081 37.7487 103.465 37.9375C103.855 38.1263 104.298 38.2207 104.793 38.2207C105.431 38.2207 105.971 38.0905 106.414 37.8301C106.857 37.5697 107.244 37.2214 107.576 36.7852L108.67 37.6543C108.442 37.9993 108.152 38.3281 107.801 38.6406C107.449 38.9531 107.016 39.207 106.502 39.4023C105.994 39.5977 105.392 39.6953 104.695 39.6953ZM118.768 35.9062C118.768 35.5742 118.715 35.2812 118.611 35.0273C118.514 34.7669 118.338 34.5326 118.084 34.3242C117.837 34.1159 117.492 33.9173 117.049 33.7285C116.613 33.5397 116.059 33.3477 115.389 33.1523C114.686 32.944 114.051 32.7129 113.484 32.459C112.918 32.1986 112.433 31.9023 112.029 31.5703C111.626 31.2383 111.316 30.8574 111.102 30.4277C110.887 29.998 110.779 29.5065 110.779 28.9531C110.779 28.3997 110.893 27.8887 111.121 27.4199C111.349 26.9512 111.674 26.5443 112.098 26.1992C112.527 25.8477 113.038 25.5742 113.631 25.3789C114.223 25.1836 114.884 25.0859 115.613 25.0859C116.681 25.0859 117.586 25.291 118.328 25.7012C119.077 26.1048 119.646 26.6354 120.037 27.293C120.428 27.944 120.623 28.6406 120.623 29.3828H118.748C118.748 28.849 118.634 28.377 118.406 27.9668C118.178 27.5501 117.833 27.2246 117.371 26.9902C116.909 26.7493 116.323 26.6289 115.613 26.6289C114.943 26.6289 114.389 26.7298 113.953 26.9316C113.517 27.1335 113.191 27.4069 112.977 27.752C112.768 28.097 112.664 28.4909 112.664 28.9336C112.664 29.2331 112.726 29.5065 112.85 29.7539C112.98 29.9948 113.178 30.2194 113.445 30.4277C113.719 30.6361 114.064 30.8281 114.48 31.0039C114.904 31.1797 115.408 31.349 115.994 31.5117C116.801 31.7396 117.498 31.9935 118.084 32.2734C118.67 32.5534 119.152 32.8691 119.529 33.2207C119.913 33.5658 120.197 33.9596 120.379 34.4023C120.568 34.8385 120.662 35.3333 120.662 35.8867C120.662 36.4661 120.545 36.9902 120.311 37.459C120.076 37.9277 119.741 38.3281 119.305 38.6602C118.868 38.9922 118.344 39.2493 117.732 39.4316C117.127 39.6074 116.45 39.6953 115.701 39.6953C115.044 39.6953 114.396 39.6042 113.758 39.4219C113.126 39.2396 112.55 38.9661 112.029 38.6016C111.515 38.237 111.102 37.7878 110.789 37.2539C110.483 36.7135 110.33 36.0885 110.33 35.3789H112.205C112.205 35.8672 112.299 36.2871 112.488 36.6387C112.677 36.9837 112.934 37.2702 113.26 37.498C113.592 37.7259 113.966 37.8952 114.383 38.0059C114.806 38.11 115.245 38.1621 115.701 38.1621C116.359 38.1621 116.915 38.071 117.371 37.8887C117.827 37.7064 118.172 37.446 118.406 37.1074C118.647 36.7689 118.768 36.3685 118.768 35.9062ZM127.02 38.2109C127.449 38.2109 127.846 38.123 128.211 37.9473C128.576 37.7715 128.875 37.5306 129.109 37.2246C129.344 36.9121 129.477 36.5573 129.51 36.1602H131.229C131.196 36.7852 130.984 37.3678 130.594 37.9082C130.21 38.4421 129.705 38.875 129.08 39.207C128.455 39.5326 127.768 39.6953 127.02 39.6953C126.225 39.6953 125.532 39.5553 124.939 39.2754C124.354 38.9954 123.865 38.6113 123.475 38.123C123.09 37.6348 122.801 37.0749 122.605 36.4434C122.417 35.8053 122.322 35.1315 122.322 34.4219V34.0117C122.322 33.3021 122.417 32.6315 122.605 32C122.801 31.362 123.09 30.7988 123.475 30.3105C123.865 29.8223 124.354 29.4382 124.939 29.1582C125.532 28.8783 126.225 28.7383 127.02 28.7383C127.846 28.7383 128.569 28.9076 129.188 29.2461C129.806 29.5781 130.291 30.0339 130.643 30.6133C131.001 31.1862 131.196 31.8372 131.229 32.5664H129.51C129.477 32.1302 129.354 31.7363 129.139 31.3848C128.93 31.0332 128.644 30.7533 128.279 30.5449C127.921 30.3301 127.501 30.2227 127.02 30.2227C126.466 30.2227 126.001 30.3333 125.623 30.5547C125.252 30.7695 124.956 31.0625 124.734 31.4336C124.52 31.7982 124.363 32.2051 124.266 32.6543C124.174 33.097 124.129 33.5495 124.129 34.0117V34.4219C124.129 34.8841 124.174 35.3398 124.266 35.7891C124.357 36.2383 124.51 36.6452 124.725 37.0098C124.946 37.3743 125.242 37.6673 125.613 37.8887C125.991 38.1035 126.46 38.2109 127.02 38.2109ZM135.066 30.5938V39.5H133.26V28.9336H135.018L135.066 30.5938ZM138.367 28.875L138.357 30.5547C138.208 30.5221 138.064 30.5026 137.928 30.4961C137.798 30.4831 137.648 30.4766 137.479 30.4766C137.062 30.4766 136.694 30.5417 136.375 30.6719C136.056 30.8021 135.786 30.9844 135.564 31.2188C135.343 31.4531 135.167 31.7331 135.037 32.0586C134.913 32.3776 134.832 32.7292 134.793 33.1133L134.285 33.4062C134.285 32.7682 134.347 32.1693 134.471 31.6094C134.601 31.0495 134.799 30.5547 135.066 30.125C135.333 29.6888 135.672 29.3503 136.082 29.1094C136.499 28.862 136.993 28.7383 137.566 28.7383C137.697 28.7383 137.846 28.7546 138.016 28.7871C138.185 28.8132 138.302 28.8424 138.367 28.875ZM142 28.9336V39.5H140.184V28.9336H142ZM140.047 26.1309C140.047 25.8379 140.135 25.5905 140.311 25.3887C140.493 25.1868 140.76 25.0859 141.111 25.0859C141.456 25.0859 141.72 25.1868 141.902 25.3887C142.091 25.5905 142.186 25.8379 142.186 26.1309C142.186 26.4108 142.091 26.6517 141.902 26.8535C141.72 27.0488 141.456 27.1465 141.111 27.1465C140.76 27.1465 140.493 27.0488 140.311 26.8535C140.135 26.6517 140.047 26.4108 140.047 26.1309ZM146.707 30.9648V43.5625H144.891V28.9336H146.551L146.707 30.9648ZM153.826 34.1289V34.334C153.826 35.1022 153.735 35.8151 153.553 36.4727C153.37 37.1237 153.104 37.6901 152.752 38.1719C152.407 38.6536 151.98 39.028 151.473 39.2949C150.965 39.5618 150.382 39.6953 149.725 39.6953C149.054 39.6953 148.462 39.5846 147.947 39.3633C147.433 39.1419 146.997 38.8197 146.639 38.3965C146.281 37.9733 145.994 37.4655 145.779 36.873C145.571 36.2806 145.428 35.6133 145.35 34.8711V33.7773C145.428 32.9961 145.574 32.2962 145.789 31.6777C146.004 31.0592 146.287 30.5319 146.639 30.0957C146.997 29.653 147.43 29.3177 147.938 29.0898C148.445 28.8555 149.031 28.7383 149.695 28.7383C150.359 28.7383 150.949 28.8685 151.463 29.1289C151.977 29.3828 152.41 29.7474 152.762 30.2227C153.113 30.6979 153.377 31.2676 153.553 31.9316C153.735 32.5892 153.826 33.3216 153.826 34.1289ZM152.01 34.334V34.1289C152.01 33.6016 151.954 33.1068 151.844 32.6445C151.733 32.1758 151.561 31.7656 151.326 31.4141C151.098 31.056 150.805 30.776 150.447 30.5742C150.089 30.3659 149.663 30.2617 149.168 30.2617C148.712 30.2617 148.315 30.3398 147.977 30.4961C147.645 30.6523 147.361 30.8639 147.127 31.1309C146.893 31.3913 146.701 31.6908 146.551 32.0293C146.408 32.3613 146.3 32.7064 146.229 33.0645V35.5938C146.359 36.0495 146.541 36.4792 146.775 36.8828C147.01 37.2799 147.322 37.6022 147.713 37.8496C148.104 38.0905 148.595 38.2109 149.188 38.2109C149.676 38.2109 150.096 38.11 150.447 37.9082C150.805 37.6999 151.098 37.4167 151.326 37.0586C151.561 36.7005 151.733 36.2904 151.844 35.8281C151.954 35.3594 152.01 34.8613 152.01 34.334ZM160.555 28.9336V30.3203H154.842V28.9336H160.555ZM156.775 26.3652H158.582V36.8828C158.582 37.2409 158.637 37.5111 158.748 37.6934C158.859 37.8757 159.002 37.9961 159.178 38.0547C159.354 38.1133 159.542 38.1426 159.744 38.1426C159.894 38.1426 160.05 38.1296 160.213 38.1035C160.382 38.071 160.509 38.0449 160.594 38.0254L160.604 39.5C160.46 39.5456 160.271 39.5879 160.037 39.627C159.809 39.6725 159.533 39.6953 159.207 39.6953C158.764 39.6953 158.357 39.6074 157.986 39.4316C157.615 39.2559 157.319 38.9629 157.098 38.5527C156.883 38.1361 156.775 37.5762 156.775 36.873V26.3652Z" fill="white"/>
</svg>
