<svg width="40" height="46" viewBox="0 0 40 46" fill="none" xmlns="http://www.w3.org/2000/svg">
<path d="M0 0L3.6404 41.4023L19.9751 46L36.356 41.3951L40 0H0ZM32.4367 9.46916L31.2055 23.4621L30.3527 33.1168L30.278 33.9744L20.0071 36.8623L9.75038 33.9744L9.04859 26.0005H14.0748L14.4319 30.0505L20.0142 31.5765L20.0284 31.5729H20.032L25.6001 30.0487L26.1846 23.4639H14.4959L14.3964 22.3235L14.1672 19.749L14.0481 18.387H26.6288L27.0871 13.1876H7.92396L7.82447 12.0454L7.59527 9.47096L7.47624 8.10896H32.5593L32.4385 9.47096L32.4367 9.46916Z" fill="white"/>
</svg>
