<svg width="27" height="38" viewBox="0 0 27 38" fill="none" xmlns="http://www.w3.org/2000/svg">
<path fill-rule="evenodd" clip-rule="evenodd" d="M3.68437 13.0489C1.76734 11.7827 0.5 9.59031 0.5 7.09783C0.5 3.17781 3.63483 0 7.50181 0H19.4982C23.3652 0 26.5 3.17781 26.5 7.09783C26.5 9.59031 25.2327 11.7827 23.3156 13.0489C25.2327 14.3152 26.5 16.5076 26.5 19.0001C26.5 22.9201 23.3652 26.0979 19.4982 26.0979H19.3705C17.5426 26.0979 15.8782 25.3878 14.6313 24.2249V30.8374C14.6313 34.8013 11.4278 38 7.53355 38C3.6745 38 0.5 34.8302 0.5 30.9022C0.5 28.4098 1.76728 26.2174 3.68424 24.9511C1.76728 23.6848 0.5 21.4925 0.5 19.0001C0.5 16.5076 1.76734 14.3152 3.68437 13.0489ZM14.6313 19.0001C14.6313 21.6534 16.7532 23.8043 19.3705 23.8043H19.4982C22.1156 23.8043 24.2375 21.6534 24.2375 19.0001C24.2375 16.3467 22.1156 14.1958 19.4982 14.1958H19.3705C16.7532 14.1958 14.6313 16.3467 14.6313 19.0001ZM12.3687 14.1958H7.50181C4.88436 14.1958 2.76253 16.3467 2.76253 19.0001C2.76253 21.648 4.8758 23.7956 7.48588 23.8043H7.49331H12.3687V14.1958ZM7.50181 26.0979C7.4965 26.0979 7.49119 26.0979 7.48588 26.0979C4.8758 26.1066 2.76253 28.2542 2.76253 30.9022C2.76253 33.5475 4.90816 35.7064 7.53355 35.7064C10.1942 35.7064 12.3687 33.5185 12.3687 30.8374V26.0979H7.50181ZM12.3687 11.9021H7.50181C4.88436 11.9021 2.76253 9.75118 2.76253 7.09783C2.76253 4.44448 4.88436 2.29355 7.50181 2.29355H12.3687V11.9021ZM19.4982 11.9021H14.6313V2.29355H19.4982C22.1156 2.29355 24.2375 4.44448 24.2375 7.09783C24.2375 9.75118 22.1156 11.9021 19.4982 11.9021Z" fill="white"/>
</svg>
