<svg width="42" height="42" viewBox="0 0 42 42" fill="none" xmlns="http://www.w3.org/2000/svg">
<path d="M41.2063 19.1304L22.8686 0.791699C22.3613 0.28476 21.6734 0 20.9562 0C20.2391 0 19.5512 0.28476 19.0439 0.791699L15.2359 4.59984L20.0662 9.43032C20.6357 9.23659 21.2482 9.20672 21.8339 9.34409C22.4196 9.48147 22.955 9.78057 23.379 10.2073C23.803 10.6341 24.0987 11.1714 24.2323 11.758C24.3659 12.3446 24.3322 12.9569 24.1348 13.5252L28.79 18.1807C29.4858 17.9414 30.2427 17.9478 30.9343 18.1989C31.626 18.45 32.2107 18.9306 32.591 19.5605C32.9713 20.1905 33.1242 20.9318 33.0242 21.6608C32.9242 22.3899 32.5774 23.0626 32.0415 23.5669C31.5057 24.0713 30.8132 24.3767 30.0794 24.4322C29.3457 24.4878 28.6151 24.2902 28.0094 23.8724C27.4037 23.4545 26.9595 22.8417 26.7508 22.136C26.5422 21.4304 26.5817 20.6745 26.8627 19.9944L22.5204 15.6518V27.0781C23.181 27.4044 23.7098 27.9472 24.0187 28.6161C24.3276 29.2851 24.3979 30.0397 24.2178 30.7541C24.0377 31.4686 23.6182 32.0997 23.0291 32.5423C22.4401 32.9849 21.7171 33.2122 20.9808 33.1863C20.2445 33.1604 19.5393 32.8828 18.9828 32.3999C18.4264 31.917 18.0522 31.258 17.9228 30.5326C17.7934 29.8073 17.9165 29.0595 18.2716 28.4139C18.6268 27.7683 19.1925 27.264 19.8744 26.985V15.4526C19.4818 15.2912 19.125 15.0539 18.8246 14.7541C18.5241 14.4544 18.2858 14.0982 18.1235 13.706C17.9612 13.3139 17.878 12.8935 17.8787 12.469C17.8794 12.0446 17.9641 11.6245 18.1277 11.2329L13.3664 6.46947L0.791818 19.0429C0.284792 19.5505 0 20.2387 0 20.9562C0 21.6738 0.284792 22.3619 0.791818 22.8696L19.1314 41.2083C19.6387 41.7152 20.3266 42 21.0438 42C21.7609 42 22.4488 41.7152 22.9561 41.2083L41.2082 22.9553C41.7152 22.4476 42 21.7594 42 21.0419C42 20.3244 41.7152 19.6362 41.2082 19.1285L41.2063 19.1304Z" fill="white"/>
</svg>
