<svg width="23" height="23" viewBox="0 0 23 23" fill="none" xmlns="http://www.w3.org/2000/svg">
<path d="M11.5 0C8.76927 0.000116099 6.12772 0.996462 4.04796 2.81076C1.96821 4.62506 0.585953 7.13892 0.148534 9.90253C-0.288886 12.6661 0.24707 15.4992 1.6605 17.8947C3.07394 20.2902 5.27261 22.0919 7.86312 22.9774C8.43812 23.0806 8.65374 22.7269 8.65374 22.4174C8.65374 22.1373 8.63936 21.2088 8.63936 20.2213C5.74999 20.7666 5.0025 19.4992 4.7725 18.8359C4.51729 18.1909 4.11272 17.6193 3.59376 17.1704C3.19126 16.9494 2.61626 16.404 3.57937 16.3893C3.94712 16.4302 4.29984 16.5614 4.60762 16.7718C4.91541 16.9822 5.1692 17.2655 5.34749 17.5978C5.50478 17.8875 5.71627 18.1426 5.96986 18.3483C6.22344 18.5541 6.51413 18.7065 6.82527 18.7969C7.13641 18.8872 7.46188 18.9138 7.78304 18.8749C8.10419 18.8361 8.41472 18.7327 8.69682 18.5706C8.74661 17.9712 9.00716 17.4107 9.42997 16.9936C6.87123 16.6988 4.1975 15.6818 4.1975 11.1719C4.18134 10 4.60309 8.86626 5.37624 8.00308C5.02467 6.98461 5.06581 5.86691 5.49124 4.8785C5.49124 4.8785 6.45433 4.56898 8.65372 6.08707C10.5354 5.55645 12.522 5.55645 14.4037 6.08707C16.603 4.55426 17.5662 4.8785 17.5662 4.8785C17.9917 5.8669 18.0328 6.98462 17.6812 8.00308C18.4566 8.86479 18.8788 9.99955 18.8599 11.1719C18.8599 15.6966 16.1718 16.6988 13.6131 16.9936C13.8875 17.2788 14.0989 17.6212 14.2328 17.9976C14.3668 18.374 14.4201 18.7755 14.3893 19.1749C14.3893 20.752 14.3749 22.0194 14.3749 22.4174C14.3749 22.7269 14.5905 23.0954 15.1655 22.9775C17.7515 22.0848 19.9438 20.2788 21.3513 17.8821C22.7587 15.4853 23.2895 12.6538 22.8491 9.89281C22.4086 7.13187 21.0255 4.62128 18.9467 2.80919C16.8678 0.997095 14.2285 0.00145606 11.5 0Z" fill="#CCCCCC"/>
</svg>
