<svg width="34" height="19" viewBox="0 0 34 19" fill="none" xmlns="http://www.w3.org/2000/svg">
<path d="M8.75391 12.8789V0.9375H11.6836V12.8789C11.6836 14.0117 11.4414 14.9766 10.957 15.7734C10.4727 16.5703 9.8125 17.1797 8.97656 17.6016C8.14062 18.0234 7.19141 18.2344 6.12891 18.2344C5.04297 18.2344 4.07812 18.0508 3.23438 17.6836C2.39844 17.3164 1.74219 16.7539 1.26562 15.9961C0.789062 15.2383 0.550781 14.2773 0.550781 13.1133H3.50391C3.50391 13.7852 3.60938 14.3281 3.82031 14.7422C4.03906 15.1484 4.34375 15.4453 4.73438 15.6328C5.13281 15.8125 5.59766 15.9023 6.12891 15.9023C6.63672 15.9023 7.08594 15.7891 7.47656 15.5625C7.875 15.3281 8.1875 14.9883 8.41406 14.543C8.64062 14.0898 8.75391 13.5352 8.75391 12.8789ZM21.4688 10.2891H17.1211L17.0977 8.14453H20.8945C21.5352 8.14453 22.0781 8.05078 22.5234 7.86328C22.9766 7.66797 23.3203 7.39062 23.5547 7.03125C23.7891 6.66406 23.9062 6.22266 23.9062 5.70703C23.9062 5.13672 23.7969 4.67188 23.5781 4.3125C23.3594 3.95312 23.0234 3.69141 22.5703 3.52734C22.125 3.36328 21.5547 3.28125 20.8594 3.28125H18.0117V18H15.0703V0.9375H20.8594C21.7969 0.9375 22.6328 1.02734 23.3672 1.20703C24.1094 1.38672 24.7383 1.66797 25.2539 2.05078C25.7773 2.42578 26.1719 2.90234 26.4375 3.48047C26.7109 4.05859 26.8477 4.74609 26.8477 5.54297C26.8477 6.24609 26.6797 6.89062 26.3438 7.47656C26.0078 8.05469 25.5117 8.52734 24.8555 8.89453C24.1992 9.26172 23.3828 9.48047 22.4062 9.55078L21.4688 10.2891ZM21.3398 18H16.1953L17.5195 15.668H21.3398C22.0039 15.668 22.5586 15.5586 23.0039 15.3398C23.4492 15.1133 23.7812 14.8047 24 14.4141C24.2266 14.0156 24.3398 13.5508 24.3398 13.0195C24.3398 12.4648 24.2422 11.9844 24.0469 11.5781C23.8516 11.1641 23.543 10.8477 23.1211 10.6289C22.6992 10.4023 22.1484 10.2891 21.4688 10.2891H18.1641L18.1875 8.14453H22.4883L23.1562 8.95312C24.0938 8.98438 24.8633 9.19141 25.4648 9.57422C26.0742 9.95703 26.5273 10.4531 26.8242 11.0625C27.1211 11.6719 27.2695 12.3281 27.2695 13.0312C27.2695 14.1172 27.0312 15.0273 26.5547 15.7617C26.0859 16.4961 25.4102 17.0547 24.5273 17.4375C23.6445 17.8125 22.582 18 21.3398 18Z" fill="white"/>
<path d="M30.0703 16.5938C30.0703 16.1562 30.2188 15.7891 30.5156 15.4922C30.8125 15.1875 31.2148 15.0352 31.7227 15.0352C32.2383 15.0352 32.6406 15.1875 32.9297 15.4922C33.2266 15.7891 33.375 16.1562 33.375 16.5938C33.375 17.0312 33.2266 17.3984 32.9297 17.6953C32.6406 17.9922 32.2383 18.1406 31.7227 18.1406C31.2148 18.1406 30.8125 17.9922 30.5156 17.6953C30.2188 17.3984 30.0703 17.0312 30.0703 16.5938Z" fill="#0099FF"/>
</svg>
