<svg width="42" height="42" viewBox="0 0 42 42" fill="none" xmlns="http://www.w3.org/2000/svg">
<path d="M36.2226 31.0572C39.138 31.0572 40.216 29.0238 41.2292 25.9753C42.2792 22.8358 42.2337 19.8154 41.2292 15.7939C40.5065 12.8977 39.1398 10.712 36.2226 10.712H32.4653V15.1587C32.4653 18.6079 29.5394 21.5146 26.2039 21.5146H16.1905C13.4518 21.5146 11.1838 23.8578 11.1838 26.6053V36.1497C11.1838 38.8674 13.5463 40.4616 16.1905 41.2404C19.358 42.1679 22.4065 42.3359 26.2022 41.2404C28.7239 40.5089 31.2089 39.0354 31.2089 36.1497V32.333H21.2042V31.059H36.2226V31.0572ZM26.8304 34.874C27.8699 34.874 28.7151 35.7279 28.7151 36.7779C28.7151 37.8384 27.8716 38.6907 26.8304 38.6907C26.3276 38.6847 25.8474 38.4803 25.4945 38.1221C25.1415 37.7639 24.9443 37.2808 24.9457 36.7779C24.9457 36.2763 25.1436 35.7949 25.4965 35.4384C25.8494 35.0819 26.3288 34.879 26.8304 34.874Z" fill="white"/>
<path d="M6.02634 31.059H9.4668V26.4828C9.4668 23.1736 12.3263 20.2564 15.7282 20.2564H25.7399C28.5241 20.2564 30.7466 17.9604 30.7466 15.1657V5.61428C30.7466 2.89656 28.4593 0.859585 25.7399 0.402841C22.3834 -0.151903 18.7364 -0.120403 15.7282 0.413341L15.73 0.411591C11.4915 1.16058 10.725 2.72506 10.725 5.62128V9.43799H20.7472V10.7137H6.96433C4.04887 10.7137 1.49739 12.4672 0.702903 15.7957C-0.215836 19.6124 -0.252586 21.9923 0.702903 25.9771C1.4134 28.9398 3.11263 31.059 6.02634 31.059ZM15.1017 6.88827C14.5995 6.88503 14.1191 6.68278 13.7658 6.32586C13.4125 5.96895 13.2151 5.48649 13.217 4.98429C13.2151 4.48126 13.4122 3.9979 13.7653 3.63959C14.1183 3.28128 14.5987 3.0771 15.1017 3.07156C16.1342 3.07156 16.9865 3.93255 16.9865 4.98429C16.9865 6.03603 16.143 6.88827 15.1017 6.88827Z" fill="white"/>
</svg>
